<svg xmlns:svg="http://www.w3.org/2000/svg" xmlns="http://www.w3.org/2000/svg" version="1.1" width="289.61084" height="370.54398">      
  <title id="title3476">Human Dental Arches</title>
  <metadata id="metadata8">
    <rdf:RDF>
      <cc:Work 
	    rdf:about="">
        <dc:format>image/svg+xml</dc:format>
        <dc:type
           rdf:resource="http://purl.org/dc/dcmitype/StillImage"/>
        <dc:title>Human Dental Arches</dc:title>
      </cc:Work>
    </rdf:RDF>
  </metadata>
  <defs>
    <marker refX="0" refY="0" orient="auto" overflow="visible">
      <circle r="0.8" cy="0" cx="3"/>
      <circle r="0.8" cy="0" cx="6.5"/>
      <circle r="0.8" cy="0" cx="10"/>
    </marker>
    <marker orient="auto" refY="0" refX="0" overflow="visible">
      <path d="m5.77 0-8.65 5 0-10 8.65 5z" transform="scale(-0.2,-0.2)" style="fill-rule:evenodd;marker-start:none;stroke-width:1pt;stroke:#000"/>
    </marker>
    <marker orient="auto" refY="0" refX="0" overflow="visible">
      <path d="M0 0 5-5-12.5 0 5 5 0 0z" transform="matrix(0.2,0,0,0.2,1.2,0)" style="fill-rule:evenodd;marker-start:none;stroke-width:1pt;stroke:#000"/>
    </marker>
    <marker orient="auto" refY="0" refX="0" overflow="visible">
      <path d="M0 0 5-5-12.5 0 5 5 0 0z" transform="matrix(0.8,0,0,0.8,10,0)" style="fill-rule:evenodd;marker-start:none;stroke-width:1pt;stroke:#000"/>
    </marker>
  </defs>
  <path
    class="tooth-11 tooth-11-parent"
    d="m 113.894,31.723601 c 0.0561,0.43476 3.08165,4.91178 3.84449,6.93412 1.03137,2.18327 2.67371,4.15697 7.0469,5.19412 3.57083,-0.36803 7.19248,-0.4467 10.19825,-4.03315 l 7.38989,-9.40518 1.34756,-2.99193 c 0.97308,-2.16029 -1.13419,-4.14679 -3.10702,-4.99829 l -5.34936,-1.19716 c -3.12438,-0.16807 -5.19809,-0.93656 -11.30278,0.59905 l -5.72815,1.04816 c -2.08382,0.77109 -4.86648,0.46927 -4.92056,4.35665 0.10953,1.48595 -0.58405,2.8577 0.58078,4.49361 z"
    style="fill:#e5e7eb;stroke:#000000;stroke-width:1;stroke-linecap:round;stroke-linejoin:miter;stroke-miterlimit:4;stroke-opacity:1;stroke-dasharray:none"/>
  <path
    class="tooth-11"
    d="m 119.37781,37.475811 -1.30961,-9.17465 c 0.71031,0 -0.79931,-1.85218 1.86701,-2.67885 9.73684,-3.18201 15.36382,-0.84956 16.95192,-0.1499 1.58809,0.69959 2.96678,2.61285 2.6621,4.62294 -0.30463,2.01002 -0.97137,2.49278 -1.42348,3.49091"
    style="fill:#e5e7eb;stroke:#000000;stroke-width:1;stroke-linecap:round;stroke-linejoin:miter;stroke-miterlimit:4;stroke-opacity:1;stroke-dasharray:none"/>
  <path
    class="tooth-12 tooth-12-parent"
    d="m 91.428666,35.605041 c 11.503464,-6.33738 9.146764,-4.4876 14.070254,-5.89646 1.71617,-0.51474 3.14074,-0.59168 3.86485,0.38286 l 2.6696,2.25199 c 1.81413,1.91332 1.6934,2.3195 1.92366,2.99912 0.8546,5.9162 -0.13307,5.84195 -0.32349,8.35998 -1.31549,2.1432 -2.9041,4.05602 -5.59189,5.04156 -1.65863,0.98199 -3.95557,0.88559 -6.39559,0.54752 l -4.012326,-0.81993 c -1.573083,0.19851 -2.928476,-0.68202 -4.307691,-1.44457 -2.910666,-1.71458 -3.662865,-4.14821 -4.663646,-6.49914 -0.201289,-1.52053 0.314192,-2.86745 1.499619,-4.05225 z"
    style="fill:#e5e7eb;stroke:#000000;stroke-width:1;stroke-linecap:round;stroke-linejoin:miter;stroke-miterlimit:4;stroke-opacity:1;stroke-dasharray:none"/>
  <path
    class="tooth-12"
    d="m 94.666436,46.343741 c -1.544027,-2.01495 -4.015778,-3.64326 -1.017236,-7.55177 2.750396,-1.80114 4.902858,-2.35706 7.29674,-3.41563 2.06063,-0.87054 4.10556,-1.71496 5.58118,-1.60995 6.1448,-0.49504 3.61491,0.73686 5.2752,1.13465"
    style="fill:#e5e7eb;stroke:#000000;stroke-width:1;stroke-linecap:round;stroke-linejoin:miter;stroke-miterlimit:4;stroke-opacity:1;stroke-dasharray:none"/>
  <path
    class="tooth-12"
    d="m 107.55706,37.262661 c 0.52599,2.30909 1.01611,4.67803 2.51107,5.37139"
    style="fill:#e5e7eb;stroke:#000000;stroke-width:1;stroke-linecap:round;stroke-linejoin:miter;stroke-miterlimit:4;stroke-opacity:1;stroke-dasharray:none"/>
  <path
    class="tooth-12"
    d="m 104.03277,46.863471 c 0.2176,-1.96646 -3.19877,-2.7984 -6.010321,-3.81921"
    style="fill:#e5e7eb;stroke:#000000;stroke-width:1;stroke-linecap:round;stroke-linejoin:miter;stroke-miterlimit:4;stroke-opacity:1;stroke-dasharray:none"/>	
  <path
    class="tooth-13 tooth-13-parent"
    d="m 76.924949,61.279161 c -4.661053,-1.305 -6.843883,-3.69247 -7.339272,-6.81701 -0.575848,-3.05499 0.06037,-6.03463 2.258302,-8.91722 1.922291,-4.48919 3.829829,-4.24058 5.739016,-4.5421 1.703054,0.18022 3.25096,0.0983 4.758501,-0.0522 4.556612,-0.16942 6.253977,1.56471 7.352032,2.69905 3.845015,4.32077 3.420426,6.83837 4.35558,9.93011 0.481064,3.41383 0.268826,6.33289 -1.809063,7.91994 -6.322272,3.96823 -7.396961,2.02387 -10.042838,1.84972 -4.927107,-1.74143 -3.659851,-1.42841 -5.272258,-2.07053 z"
    style="fill:#e5e7eb;stroke:#000000;stroke-width:1;stroke-linecap:round;stroke-linejoin:miter;stroke-miterlimit:4;stroke-opacity:1;stroke-dasharray:none"/>
  <path
    class="tooth-13"
    d="m 74.039227,56.842881 c 0.221473,-4.22581 0.644762,-8.23493 3.005608,-10.16346 2.336081,-2.05381 5.341768,-3.54265 9.455081,-4.0972"
    style="fill:#e5e7eb;stroke:#000000;stroke-width:1;stroke-linecap:round;stroke-linejoin:miter;stroke-miterlimit:4;stroke-opacity:1;stroke-dasharray:none"/>
  <path
    class="tooth-13"
    d="m 88.421251,46.330051 c 2.787923,9.10135 3.996541,11.24926 -3.288822,5.60813"
    style="fill:#e5e7eb;stroke:#000000;stroke-width:1;stroke-linecap:round;stroke-linejoin:miter;stroke-miterlimit:4;stroke-opacity:1;stroke-dasharray:none"/>
  <path
    class="tooth-13"
    d="m 81.92554,55.113251 c 6.138064,6.23387 2.066664,5.31188 -4.543407,2.61052"
    style="fill:#e5e7eb;stroke:#000000;stroke-width:1;stroke-linecap:round;stroke-linejoin:miter;stroke-miterlimit:4;stroke-opacity:1;stroke-dasharray:none"/>
  <path
    class="tooth-14 tooth-14-parent"
    d="m 64.287549,60.689891 c -7.036983,2.05655 -7.499595,4.89403 -7.533489,7.78258 -0.357912,12.705 12.493542,12.48996 14.982456,11.51324 3.915814,0.40697 6.635348,0.029 8.775402,-0.72941 3.996026,-0.2573 5.920727,-2.26187 6.559363,-5.35139 0.584996,-1.65849 0.784388,-3.47976 -0.204908,-5.80303 -0.723248,-1.2977 -0.231398,-2.54169 -4.671496,-4.00347 -4.681827,-0.43301 -6.163843,-1.42956 -8.096137,-2.51347 -2.779381,-2.5312 -6.236813,-1.97896 -9.811191,-0.89505 z"
    style="fill:#e5e7eb;stroke:#000000;stroke-width:1;stroke-linecap:round;stroke-linejoin:miter;stroke-miterlimit:4;stroke-opacity:1;stroke-dasharray:none"/>
  <path
    class="tooth-14"
    d="m 70.978866,60.704571 c 0.0319,0.62403 0.571799,1.24913 -1.269769,1.86896 -3.189123,2.1702 -2.973255,3.77656 -2.247001,5.29849 1.476584,2.35431 0.950066,3.46905 -0.532899,3.99204 -4.599213,3.74372 -3.551609,4.51177 -4.778427,6.47835"
    style="fill:#e5e7eb;stroke:#000000;stroke-width:1;stroke-linecap:round;stroke-linejoin:miter;stroke-miterlimit:4;stroke-opacity:1;stroke-dasharray:none"/>
  <path
    class="tooth-14"
    d="m 65.279354,76.415121 c 4.29831,-0.5114 7.758754,-1.93772 8.717783,-6.09536 0.507031,-2.40736 -1.153684,-3.78149 -3.404816,-4.87414"
    style="fill:#e5e7eb;stroke:#000000;stroke-width:1;stroke-linecap:round;stroke-linejoin:miter;stroke-miterlimit:4;stroke-opacity:1;stroke-dasharray:none"/>
  <path
    class="tooth-14"
    d="m 80.848615,66.653581 c -5.617237,0.47275 -7.424129,1.68252 -6.70124,3.16737 -0.01555,3.9172 1.465284,2.98769 2.514615,4.24825"
    style="fill:#e5e7eb;stroke:#000000;stroke-width:1;stroke-linecap:round;stroke-linejoin:miter;stroke-miterlimit:4;stroke-opacity:1;stroke-dasharray:none"/>
  <path
    class="tooth-14"
    d="m 71.523837,76.678431 c 0.797156,-0.87177 0.530229,-1.74585 0.156881,-2.62015"
    style="fill:#e5e7eb;stroke:#000000;stroke-width:1;stroke-linecap:round;stroke-linejoin:miter;stroke-miterlimit:4;stroke-opacity:1;stroke-dasharray:none"/>
  <path
    class="tooth-14"
    d="m 76.168244,65.520251 c -1.961012,1.51323 -2.158947,2.29157 -2.165412,2.99014"
    style="fill:#e5e7eb;stroke:#000000;stroke-width:1;stroke-linecap:round;stroke-linejoin:miter;stroke-miterlimit:4;stroke-opacity:1;stroke-dasharray:none"/>
  <path
    class="tooth-14"
    d="m 82.63766,65.160111 c 1.377059,2.5781 0.0085,4.69009 0.27693,6.55188 0.256583,2.59532 -0.660889,4.80462 -3.959888,6.23063 -2.028464,0.95862 -4.49012,1.15425 -6.695376,1.29552"
    style="fill:#e5e7eb;stroke:#000000;stroke-width:1;stroke-linecap:round;stroke-linejoin:miter;stroke-miterlimit:4;stroke-opacity:1;stroke-dasharray:none"/>
  <path
    class="tooth-15 tooth-15-parent"
    d="m 57.473765,80.464991 c -8.431027,1.00936 -12.429637,4.65891 -9.877252,12.21083 2.688393,2.77158 5.132545,5.74701 9.695968,6.95317 1.616986,-0.0283 3.036904,0.10824 4.006631,0.620389 1.399996,0.32137 3.003957,0.31919 4.73703,0.11232 3.263724,-1.454589 7.652073,-0.2444 9.490541,-5.075989 1.517631,-3.86591 1.258553,-7.27018 -2.398877,-9.79138 -7.228529,-5.07305 -11.201614,-4.64639 -15.654041,-5.02934 z"
    style="fill:#e5e7eb;stroke:#000000;stroke-width:1;stroke-linecap:round;stroke-linejoin:miter;stroke-miterlimit:4;stroke-opacity:1;stroke-dasharray:none"/>
  <path
    class="tooth-15"
    d="m 64.017607,99.560231 c 3.218535,-1.83743 7.516836,-0.29878 8.940041,-5.84531 0.251569,-1.76849 1.693998,-3.85582 -1.610955,-7.92747"
    style="fill:#e5e7eb;stroke:#000000;stroke-width:1;stroke-linecap:round;stroke-linejoin:miter;stroke-miterlimit:4;stroke-opacity:1;stroke-dasharray:none"/>
  <path
    class="tooth-15"
    d="m 59.537149,80.979141 c -1.068561,1.04034 -2.062091,2.01914 -1.663212,3.13974 -0.465371,1.29699 -0.463993,1.67812 -0.539801,2.15625 -0.660628,1.03004 -0.710131,1.29501 -0.733588,1.52747 0.02241,1.78692 0.379987,2.18359 0.720566,2.65202 0.962308,2.36493 0.08107,2.86361 -0.497281,3.66865 -0.586201,0.7973 -1.405345,0.40277 -1.708838,2.64665"
    style="fill:#e5e7eb;stroke:#000000;stroke-width:1;stroke-linecap:round;stroke-linejoin:miter;stroke-miterlimit:4;stroke-opacity:1;stroke-dasharray:none"/>
  <path
    class="tooth-15"
    d="m 65.803025,97.201131 c -4.094686,-1.19002 -4.354798,-3.01483 -3.628538,-5.00291 -0.431478,-3.19923 1.120741,-5.05945 2.209051,-7.23283"
    style="fill:#e5e7eb;stroke:#000000;stroke-width:1;stroke-linecap:round;stroke-linejoin:miter;stroke-miterlimit:4;stroke-opacity:1;stroke-dasharray:none"/>
  <path
    class="tooth-15"
    d="m 68.144634,86.400831 c -1.701079,0.17297 -3.401807,0.21793 -5.104514,0.90622"
    style="fill:#e5e7eb;stroke:#000000;stroke-width:1;stroke-linecap:round;stroke-linejoin:miter;stroke-miterlimit:4;stroke-opacity:1;stroke-dasharray:none"/>
  <path
    class="tooth-15"
    d="m 60.255473,84.344691 c 1.8564,1.33738 2.431475,2.4029 3.025951,3.47262"
    style="fill:#e5e7eb;stroke:#000000;stroke-width:1;stroke-linecap:round;stroke-linejoin:miter;stroke-miterlimit:4;stroke-opacity:1;stroke-dasharray:none"/>
  <path
    class="tooth-15"
    d="m 57.544054,96.877191 c 0.78275,-0.67 2.222159,-1.66864 4.62569,-3.14996"
    style="fill:#e5e7eb;stroke:#000000;stroke-width:1;stroke-linecap:round;stroke-linejoin:miter;stroke-miterlimit:4;stroke-opacity:1;stroke-dasharray:none"/>
  <path
    class="tooth-16 tooth-16-parent"
    d="m 40.400929,101.93638 c 8.540214,-6.220469 14.83636,-2.627509 21.132851,0.9639 1.70039,1.7707 3.363687,3.5413 5.692529,5.31326 7.131417,5.75158 5.79007,9.65482 1.660196,12.94987 -2.573952,2.39643 -5.039142,4.74748 -6.337117,6.61203 -1.48762,1.28541 -2.855361,2.27152 -4.017065,2.7435 -5.497444,2.07161 -7.596361,-0.81763 -10.682339,-2.26609 -11.087339,-4.90405 -15.057835,-11.73539 -12.204887,-20.4145 0.31436,-3.34607 2.189645,-4.99871 4.755832,-5.90197 z"
    style="fill:#e5e7eb;stroke:#000000;stroke-width:1;stroke-linecap:butt;stroke-linejoin:miter;stroke-miterlimit:4;stroke-opacity:1;stroke-dasharray:none"/>
  <path
    class="tooth-16"
    d="m 41.71356,109.48273 c -1.793872,-6.97856 2.534794,-6.20622 4.883559,-7.94042 4.080457,-0.82336 7.498474,-2.828319 14.329591,1.25469 5.087701,5.94121 3.566612,9.2765 4.209478,13.4651 0.314098,3.99921 -1.116603,6.42981 -3.059932,7.43475 -0.483572,2.15731 -0.369384,4.22178 -4.634918,6.10614 -3.630005,2.71627 -6.181271,0.37991 -8.863197,-1.34468 -4.038369,-0.91091 -4.687008,-3.13754 -4.596452,-6.2283 -8.218179,-2.99932 -3.622847,-8.66354 -2.268129,-12.74728 z"
    style="fill:#e5e7eb;stroke:#000000;stroke-width:1;stroke-linecap:butt;stroke-linejoin:miter;stroke-miterlimit:4;stroke-opacity:1;stroke-dasharray:none"/>
  <path
    class="tooth-16"
    d="m 57.646425,102.99366 c -0.835531,0.82319 -1.950837,0.9361 -2.196631,3.25721 0.377749,2.37943 -1.179557,4.75452 -2.694602,7.12975 -1.566707,1.27953 -1.058127,4.7477 -1.480204,7.23439 1.534795,1.22758 3.073385,1.24141 4.612322,1.13147 l 2.90866,2.14709"
    style="fill:#e5e7eb;stroke:#000000;stroke-width:1;stroke-linecap:round;stroke-linejoin:miter;stroke-miterlimit:4;stroke-opacity:1;stroke-dasharray:none"/>
  <path
    class="tooth-16"
    d="m 43.289755,110.40366 c 1.041394,0.9471 1.818882,2.04093 4.731337,1.94719 1.660625,-0.17834 3.320994,-0.2683 4.978341,0.62258"
    style="fill:#e5e7eb;stroke:#000000;stroke-width:1;stroke-linecap:round;stroke-linejoin:miter;stroke-miterlimit:4;stroke-opacity:1;stroke-dasharray:none"/>
  <path
    class="tooth-16"
    d="m 61.629168,111.25942 c -3.1824,0.45917 -7.886313,0.27574 -8.751252,1.71372"
    style="fill:#e5e7eb;stroke:#000000;stroke-width:1;stroke-linecap:round;stroke-linejoin:miter;stroke-miterlimit:4;stroke-opacity:1;stroke-dasharray:none"/>
  <path
    class="tooth-16"
    d="m 45.076555,121.72273 c 3.240786,1.23084 4.613615,-0.0607 6.31926,-0.90363"
    style="fill:#e5e7eb;stroke:#000000;stroke-width:1;stroke-linecap:round;stroke-linejoin:miter;stroke-miterlimit:4;stroke-opacity:1;stroke-dasharray:none"/>
  <path
    class="tooth-16"
    d="m 47.737092,125.50026 1.469421,-3.76848"
    style="fill:#e5e7eb;stroke:#000000;stroke-width:1;stroke-linecap:round;stroke-linejoin:miter;stroke-miterlimit:4;stroke-opacity:1;stroke-dasharray:none"/>
  <path
    class="tooth-17 tooth-17-parent"
    d="m 28.730841,143.70545 c -1.738504,-1.99931 -1.511164,-4.90954 -0.338594,-8.2577 4.474246,-8.60052 12.512518,-10.45413 25.03487,-3.81872 3.92789,1.33064 7.041725,3.88921 9.09019,6.4421 2.015003,2.51132 3.885891,3.72014 2.889861,8.1614 -2.299784,7.48128 -6.272087,13.34988 -17.529844,12.19412 -4.473038,-0.45662 -8.42318,0.5263 -14.080605,-3.19104 -2.190077,-3.04198 -6.410162,-2.83939 -5.065878,-11.53016 z"
    style="fill:#e5e7eb;stroke:#000000;stroke-width:1;stroke-linecap:round;stroke-linejoin:miter;stroke-miterlimit:4;stroke-opacity:1;stroke-dasharray:none"/>
  <path
    class="tooth-17"
    d="m 51.953899,136.62079 c -1.14411,0.52177 -1.969033,0.51149 -2.795422,0.50354 -2.206896,-0.27489 -3.134363,0.70956 -3.408443,2.33709 -0.02932,1.02339 0.296331,2.14687 -1.587405,2.64692 -1.623112,1.24226 -0.813367,1.8099 -0.615265,2.54712 -0.04397,1.15672 -0.08702,1.93304 -0.129451,2.54814 -0.03708,4.15222 1.318064,4.06319 2.169292,5.50948 0.512891,0.46885 1.14687,0.90411 0.723758,1.63258 l 0.969465,0.71573"
    style="fill:#e5e7eb;stroke:#000000;stroke-width:1;stroke-linecap:round;stroke-linejoin:miter;stroke-miterlimit:4;stroke-opacity:1;stroke-dasharray:none"/>
  <path
    class="tooth-17"
    d="m 44.438005,131.71125 c 0.463561,0.85049 0.914273,1.70099 1.692621,2.55219 0.864338,0.54275 1.229578,1.71024 1.448121,3.0613"
    style="fill:#e5e7eb;stroke:#000000;stroke-width:1;stroke-linecap:round;stroke-linejoin:miter;stroke-miterlimit:4;stroke-opacity:1;stroke-dasharray:none"/>
  <path
    class="tooth-17"
    d="m 35.808271,133.42526 c 1.634924,0.0586 3.272954,0.11453 3.640267,1.23126 2.07132,1.28611 4.148849,2.57608 6.425514,3.98972"
    style="fill:#e5e7eb;stroke:#000000;stroke-width:1;stroke-linecap:round;stroke-linejoin:miter;stroke-miterlimit:4;stroke-opacity:1;stroke-dasharray:none"/>
  <path
    class="tooth-17"
    d="m 32.74256,142.69487 4.735737,0.52011 c 1.781367,0.64501 3.647339,1.07868 6.073208,0.11535"
    style="fill:#e5e7eb;stroke:#000000;stroke-width:1;stroke-linecap:round;stroke-linejoin:miter;stroke-miterlimit:4;stroke-opacity:1;stroke-dasharray:none"/>
  <path
    class="tooth-17"
    d="m 42.056984,155.15179 1.217504,-0.91476 c -0.337126,-2.61551 0.281241,-3.00781 1.223024,-2.64766"
    style="fill:#e5e7eb;stroke:#000000;stroke-width:1;stroke-linecap:round;stroke-linejoin:miter;stroke-miterlimit:4;stroke-opacity:1;stroke-dasharray:none"/>
  <path
    class="tooth-17"
    d="m 43.546071,145.06322 2.551524,-0.19829 c 1.131692,0.65507 2.264161,1.04481 3.396715,1.43462"
    style="fill:#e5e7eb;stroke:#000000;stroke-width:1;stroke-linecap:round;stroke-linejoin:miter;stroke-miterlimit:4;stroke-opacity:1;stroke-dasharray:none"/>
  <path
	class="tooth-18 tooth-18-parent"
    d="m 41.96617,158.28623 c 4.957642,0.3802 9.428351,1.37009 12.439384,3.64608 4.298567,1.86448 7.041035,3.81871 6.814214,5.94445 1.375849,3.24006 0.304958,5.59378 -0.500905,8.0435 l -2.290119,4.0215 c -1.448553,2.34064 -4.442078,3.89867 -9.124602,4.60116 -5.51245,0.76681 -11.025416,1.68656 -16.527257,-0.94524 -6.263892,-1.96088 -6.561951,-4.74265 -7.163588,-7.48272 -1.848724,-2.81074 -3.086495,-6.19523 -2.353337,-11.43077 0.649676,-2.39317 1.475289,-5.43564 5.517882,-6.82619 4.04251,-1.39056 7.66734,-0.66913 13.188328,0.42823 z"
	style="fill:none;stroke:#000000;stroke-width:1;stroke-linecap:butt;stroke-linejoin:round;stroke-miterlimit:4;stroke-opacity:1;stroke-dasharray:none"/>
  <path
	class="tooth-18"
	d="m 27.214414,162.56067 c -4.602491,5.48162 -1.449069,7.89644 0.452177,10.80646 -0.517377,4.93338 -0.362742,8.72622 3.618361,8.26497 5.869328,3.50971 10.149782,1.62584 14.816091,1.05191 0.669255,-0.89117 0.711772,-2.04702 2.558513,-2.44089 0,0 4.110124,-7.39848 4.642593,-8.55257 0.532469,-1.1542 0.961964,-3.2939 -1.804566,-5.61058 0,0 -4.280284,-3.75371 -7.030341,-4.80657 -1.308061,-0.50084 -2.848462,-0.34979 -4.249495,-0.62096 -2.872351,-0.55593 -8.496574,-2.05745 -8.496574,-2.05745 -2.69486,-0.49983 -4.370838,0.6715 -4.506759,3.96568 z"
	style="fill:none;stroke:#000000;stroke-width:1;stroke-linecap:butt;stroke-linejoin:miter;stroke-miterlimit:4;stroke-opacity:1;stroke-dasharray:none"/>
  <path
	class="tooth-18"
	d="m 46.117259,177.48517 c 0.175593,-0.0976 -2.921599,-1.75352 -5.09408,-2.45767 -1.110909,-0.36007 -1.775158,-1.48015 -2.057348,-2.451 -0.580852,-1.99823 1.725136,-4.53333 0.990856,-6.11418 -0.734366,-1.58083 -2.277959,-1.65191 -3.637421,-2.14869 -0.910132,-0.33257 -1.450364,-0.055 -2.913751,-0.51604"
	style="fill:none;stroke:#000000;stroke-width:1;stroke-linecap:round;stroke-linejoin:miter;stroke-miterlimit:4;stroke-opacity:1;stroke-dasharray:none"/>
  <path
    class="tooth-18"
    d="m 44.335288,164.63708 c -1.936175,0.47834 -4.395158,0.8824 -4.499429,1.62115"
	style="fill:none;stroke:#000000;stroke-width:1;stroke-linecap:round;stroke-linejoin:round;stroke-miterlimit:4;stroke-opacity:1;stroke-dasharray:none;marker-start:none;marker-mid:none"/>
  <path
    class="tooth-18"
    d="m 33.619229,173.17633 c 0.782922,-0.32756 1.790594,-0.72316 3.038028,-0.40109 1.24743,0.32207 1.898657,0.42253 2.309522,-0.50459"
    style="fill:none;stroke:#000000;stroke-width:1;stroke-linecap:round;stroke-linejoin:miter;stroke-miterlimit:4;stroke-opacity:1;stroke-dasharray:none"/>
  <path
    class="tooth-18"
    d="m 44.189019,172.58793 c -1.823454,-0.063 -3.816982,0.85557 -5.341772,-0.92916"
	style="fill:none;stroke:#000000;stroke-width:1;stroke-linecap:round;stroke-linejoin:miter;stroke-miterlimit:4;stroke-opacity:1;stroke-dasharray:none"/>
  <path
    class="tooth-18"
    d="m 33.867266,132.60545 c 4.711244,-8.54627 12.420066,-1.7517 19.908966,3.91744 1.532555,1.54557 3.478301,2.51657 4.113488,5.30978 2.308317,4.92518 -3.415862,7.7301 -6.108223,11.09791 -2.692275,3.3677 -5.472087,5.04721 -10.336673,3.74897 -11.375911,-3.51898 -11.810579,-8.13329 -10.041632,-12.96823 -3.592488,-7.15608 -1.159117,-7.53274 -0.213023,-9.58263 0.892108,-0.41319 1.783438,-0.60833 2.677097,-1.52324 z"
    style="fill:none;stroke:#000000;stroke-width:1;stroke-linecap:butt;stroke-linejoin:miter;stroke-miterlimit:4;stroke-opacity:1;stroke-dasharray:none"/>
  <path
    class="tooth-18"
    d="m 40.051296,163.38475 c 0.439499,0.91238 0.673738,1.78972 -0.09978,2.49567"
    style="fill:none;stroke:#000000;stroke-width:1;stroke-linecap:round;stroke-linejoin:miter;stroke-miterlimit:4;stroke-opacity:1;stroke-dasharray:none"/>
  <path
    class="tooth-21 tooth-21-parent"
    d="m 175.14525,31.757761 c -0.0561,0.43475 -3.08166,4.91178 -3.84449,6.93411 -1.0314,2.18329 -2.67373,4.15698 -7.0469,5.19413 -3.57085,-0.36803 -7.1925,-0.4467 -10.19825,-4.03314 l -7.38988,-9.40519 -1.34757,-2.99194 c -0.9731,-2.16026 1.13418,-4.14677 3.10702,-4.99829 l 5.34936,-1.19716 c 3.12437,-0.16804 5.19808,-0.93654 11.30286,0.59906 l 5.72806,1.04815 c 2.08381,0.77109 4.86648,0.46928 4.92055,4.35667 -0.10952,1.48594 0.58404,2.85768 -0.58076,4.4936 z"
    style="fill:#e5e7eb;stroke:#000000;stroke-width:1;stroke-linecap:round;stroke-linejoin:miter;stroke-miterlimit:4;stroke-opacity:1;stroke-dasharray:none"/>
  <path
    class="tooth-21"
    d="m 169.66144,37.509981 1.30961,-9.17466 c -0.71032,0 0.7993,-1.85217 -1.86701,-2.67886 -9.73684,-3.182 -15.36382,-0.84955 -16.95192,-0.14988 -1.5881,0.69959 -2.96678,2.61284 -2.6621,4.62295 0.30462,2.01002 0.97136,2.49275 1.42345,3.49089"
    style="fill:#e5e7eb;stroke:#000000;stroke-width:1;stroke-linecap:round;stroke-linejoin:miter;stroke-miterlimit:4;stroke-opacity:1;stroke-dasharray:none"/>
  <path
    class="tooth-22 tooth-22-parent"
    d="m 197.61055,35.639201 c -11.50344,-6.33737 -9.14675,-4.48759 -14.07014,-5.89645 -1.71628,-0.51475 -3.14085,-0.59168 -3.86493,0.38286 l -2.6696,2.25197 c -1.81414,1.91334 -1.69341,2.3195 -1.92368,2.99912 -0.8546,5.91623 0.13307,5.84197 0.32351,8.35999 1.31548,2.14319 2.90408,4.05601 5.59188,5.04157 1.65864,0.98198 3.95557,0.88558 6.39568,0.54751 l 4.01223,-0.81994 c 1.57309,0.19854 2.92847,-0.682 4.30771,-1.44456 2.91064,-1.71458 3.66285,-4.14822 4.66364,-6.49912 0.20138,-1.52056 -0.3142,-2.86746 -1.49962,-4.05227 z"
    style="fill:#e5e7eb;stroke:#000000;stroke-width:1;stroke-linecap:round;stroke-linejoin:miter;stroke-miterlimit:4;stroke-opacity:1;stroke-dasharray:none"/>
  <path
    class="tooth-22"
    d="m 194.37281,46.377911 c 1.54403,-2.01495 4.01577,-3.64326 1.01732,-7.55179 -2.75048,-1.80114 -4.90296,-2.35706 -7.29682,-3.41563 -2.06065,-0.87054 -4.10556,-1.71494 -5.5812,-1.60991 -6.14478,-0.49508 -3.61489,0.73684 -5.27519,1.13463"
    style="fill:#e5e7eb;stroke:#000000;stroke-width:1;stroke-linecap:round;stroke-linejoin:miter;stroke-miterlimit:4;stroke-opacity:1;stroke-dasharray:none"/>
  <path
    class="tooth-22"
    d="m 181.48219,37.296831 c -0.52601,2.30907 -1.01613,4.67802 -2.51109,5.37138"
    style="fill:#e5e7eb;stroke:#000000;stroke-width:1;stroke-linecap:round;stroke-linejoin:miter;stroke-miterlimit:4;stroke-opacity:1;stroke-dasharray:none"/>
  <path
    class="tooth-22"
    d="m 185.00647,46.897631 c -0.2176,-1.96645 3.19887,-2.79841 6.0103,-3.8192"
    style="fill:#e5e7eb;stroke:#000000;stroke-width:1;stroke-linecap:round;stroke-linejoin:miter;stroke-miterlimit:4;stroke-opacity:1;stroke-dasharray:none"/>
  <path
    class="tooth-23 tooth-23-parent"
    d="m 212.11427,61.313331 c 4.66114,-1.30502 6.84388,-3.69249 7.33927,-6.81702 0.57587,-3.05499 -0.0603,-6.03464 -2.25828,-8.91722 -1.92229,-4.48919 -3.82983,-4.24058 -5.73902,-4.54209 -1.70306,0.18022 -3.25096,0.0983 -4.75842,-0.0522 -4.5566,-0.16945 -6.25405,1.56469 -7.35212,2.69903 -3.84499,4.32077 -3.42041,6.83837 -4.35558,9.93012 -0.48096,3.41382 -0.26881,6.33281 1.80909,7.91996 6.32226,3.96822 7.39694,2.02383 10.04283,1.84969 4.9271,-1.74142 3.65983,-1.4284 5.27223,-2.07051 z"
    style="fill:#e5e7eb;stroke:#000000;stroke-width:1;stroke-linecap:round;stroke-linejoin:miter;stroke-miterlimit:4;stroke-opacity:1;stroke-dasharray:none"/>
  <path
    class="tooth-23"
    d="m 215.00002,56.877051 c -0.22149,-4.22583 -0.64477,-8.23494 -3.00562,-10.16346 -2.33609,-2.05383 -5.34176,-3.54266 -9.455,-4.09721"
    style="fill:#e5e7eb;stroke:#000000;stroke-width:1;stroke-linecap:round;stroke-linejoin:miter;stroke-miterlimit:4;stroke-opacity:1;stroke-dasharray:none"/>
  <path
    class="tooth-23"
    d="m 200.61798,46.364221 c -2.78783,9.10135 -3.99653,11.24924 3.28882,5.60813"
    style="fill:#e5e7eb;stroke:#000000;stroke-width:1;stroke-linecap:round;stroke-linejoin:miter;stroke-miterlimit:4;stroke-opacity:1;stroke-dasharray:none"/>
  <path
    class="tooth-23"
    d="m 207.1137,55.147401 c -6.13808,6.23388 -2.06668,5.31188 4.54339,2.61055"
    style="fill:#e5e7eb;stroke:#000000;stroke-width:1;stroke-linecap:round;stroke-linejoin:miter;stroke-miterlimit:4;stroke-opacity:1;stroke-dasharray:none"/>
  <path
    class="tooth-24 tooth-24-parent"
    d="m 224.75169,60.724041 c 7.03697,2.05657 7.49958,4.89405 7.53348,7.78258 0.35791,12.70499 -12.49354,12.48997 -14.98244,11.51326 -3.91582,0.40698 -6.63535,0.029 -8.77541,-0.72941 -3.99602,-0.25729 -5.92072,-2.2619 -6.55937,-5.35139 -0.585,-1.65851 -0.78439,-3.47976 0.20492,-5.80302 0.72324,-1.2977 0.23147,-2.54171 4.67149,-4.00347 4.68183,-0.43303 6.16383,-1.42957 8.09613,-2.51347 2.77947,-2.5312 6.23681,-1.97897 9.8112,-0.89508 z"
    style="fill:#e5e7eb;stroke:#000000;stroke-width:1;stroke-linecap:round;stroke-linejoin:miter;stroke-miterlimit:4;stroke-opacity:1;stroke-dasharray:none"/>
  <path
    class="tooth-24"
    d="m 218.06036,60.738741 c -0.0319,0.62401 -0.57179,1.24913 1.26978,1.86895 3.18911,2.1702 2.97324,3.77656 2.24699,5.29848 -1.47657,2.35432 -0.95007,3.46905 0.5329,3.99205 4.59921,3.74369 3.55163,4.51176 4.77844,6.47835"
    style="fill:#e5e7eb;stroke:#000000;stroke-width:1;stroke-linecap:round;stroke-linejoin:miter;stroke-miterlimit:4;stroke-opacity:1;stroke-dasharray:none"/>
  <path
    class="tooth-24"
    d="m 223.75987,76.449301 c -4.2983,-0.51142 -7.75877,-1.93772 -8.71777,-6.09536 -0.50705,-2.40737 1.15368,-3.7815 3.40482,-4.87417"
    style="fill:#e5e7eb;stroke:#000000;stroke-width:1;stroke-linecap:round;stroke-linejoin:miter;stroke-miterlimit:4;stroke-opacity:1;stroke-dasharray:none"/>
  <path
    class="tooth-24"
    d="m 208.19063,66.687721 c 5.61724,0.47279 7.4241,1.68254 6.70123,3.1674 0.0155,3.91721 -1.46528,2.98767 -2.51461,4.24825"
    style="fill:#e5e7eb;stroke:#000000;stroke-width:1;stroke-linecap:round;stroke-linejoin:miter;stroke-miterlimit:4;stroke-opacity:1;stroke-dasharray:none"/>
  <path
    class="tooth-24"
    d="m 217.51538,76.712591 c -0.79714,-0.87176 -0.53022,-1.74585 -0.15685,-2.62016"
    style="fill:#e5e7eb;stroke:#000000;stroke-width:1;stroke-linecap:round;stroke-linejoin:miter;stroke-miterlimit:4;stroke-opacity:1;stroke-dasharray:none"/>
  <path
    class="tooth-24"
    d="m 212.87098,65.554401 c 1.961012,1.51324 2.15897,2.29157 2.16542,2.99014"
    style="fill:#e5e7eb;stroke:#000000;stroke-width:1;stroke-linecap:round;stroke-linejoin:miter;stroke-miterlimit:4;stroke-opacity:1;stroke-dasharray:none"/>
  <path
    class="tooth-24"
    d="m 206.40158,65.194271 c -1.37707,2.57808 -0.008,4.69007 -0.27693,6.55189 -0.25648,2.59533 0.66089,4.80461 3.95989,6.23062 2.02854,0.95861 4.49012,1.15426 6.69537,1.29552"
    style="fill:#e5e7eb;stroke:#000000;stroke-width:1;stroke-linecap:round;stroke-linejoin:miter;stroke-miterlimit:4;stroke-opacity:1;stroke-dasharray:none"/>
  <path
    class="tooth-25 tooth-25-parent"
    d="m 231.56547,80.499151 c 8.43103,1.00936 12.42965,4.65893 9.87724,12.21084 -2.68839,2.77156 -5.13256,5.747 -9.69595,6.95315 -1.617,-0.0283 -3.03691,0.10824 -4.00664,0.620389 -1.39999,0.32136 -3.00395,0.31919 -4.73702,0.11232 -3.26373,-1.454619 -7.65208,-0.24442 -9.49055,-5.075989 -1.51762,-3.86591 -1.25854,-7.27018 2.39888,-9.7914 7.22853,-5.07305 11.20162,-4.64639 15.65404,-5.02933 z"
    style="fill:#e5e7eb;stroke:#000000;stroke-width:1;stroke-linecap:round;stroke-linejoin:miter;stroke-miterlimit:4;stroke-opacity:1;stroke-dasharray:none"/>
  <path
    class="tooth-25"
    d="m 229.50209,81.013321 c 1.06855,1.04032 2.06208,2.01913 1.66319,3.13973 0.46539,1.29698 0.46401,1.67811 0.53981,2.15622 0.66065,1.03005 0.71015,1.29504 0.7336,1.5275 -0.0224,1.7869 -0.37999,2.18358 -0.72057,2.65199 -0.96231,2.36497 -0.081,2.86364 0.49728,3.66867 0.58621,0.7973 1.40534,0.40278 1.70884,2.64664"
    style="fill:#e5e7eb;stroke:#000000;stroke-width:1;stroke-linecap:round;stroke-linejoin:miter;stroke-miterlimit:4;stroke-opacity:1;stroke-dasharray:none"/>
  <path
    class="tooth-25"
    d="m 223.23621,97.235281 c 4.09468,-1.19 4.35479,-3.01479 3.62853,-5.0029 0.43149,-3.19923 -1.12073,-5.05943 -2.20904,-7.23282"
    style="fill:#e5e7eb;stroke:#000000;stroke-width:1;stroke-linecap:round;stroke-linejoin:miter;stroke-miterlimit:4;stroke-opacity:1;stroke-dasharray:none"/>
  <path
    class="tooth-25"
    d="m 220.89459,86.435001 c 1.70108,0.17298 3.40182,0.21791 5.10452,0.90621"
    style="fill:#e5e7eb;stroke:#000000;stroke-width:1;stroke-linecap:round;stroke-linejoin:miter;stroke-miterlimit:4;stroke-opacity:1;stroke-dasharray:none"/>
  <path
    class="tooth-25"
    d="m 228.78376,84.378861 c -1.85639,1.33738 -2.43148,2.40289 -3.02595,3.47261"
    style="fill:#e5e7eb;stroke:#000000;stroke-width:1;stroke-linecap:round;stroke-linejoin:miter;stroke-miterlimit:4;stroke-opacity:1;stroke-dasharray:none"/>
  <path
    class="tooth-25"
    d="m 231.49517,96.911331 c -0.78273,-0.66998 -2.22215,-1.66862 -4.62568,-3.14995"
    style="fill:#e5e7eb;stroke:#000000;stroke-width:1;stroke-linecap:round;stroke-linejoin:miter;stroke-miterlimit:4;stroke-opacity:1;stroke-dasharray:none"/>
  <path
    class="tooth-26 tooth-26-parent"
    d="m 248.63831,101.97056 c -8.54022,-6.220499 -14.83636,-2.627539 -21.13285,0.9639 -1.70031,1.77067 -3.36369,3.54129 -5.69255,5.31326 -7.1314,5.75156 -5.79006,9.65479 -1.66018,12.94984 2.57395,2.39645 5.03916,4.74751 6.3371,6.61207 1.48763,1.28539 2.85536,2.27151 4.01709,2.74345 5.49743,2.07163 7.59635,-0.81761 10.68233,-2.26607 11.08734,-4.90404 15.05783,-11.73539 12.20489,-20.41449 -0.31437,-3.34609 -2.18965,-4.99871 -4.75583,-5.90196 z"
    style="fill:#e5e7eb;stroke:#000000;stroke-width:1;stroke-linecap:butt;stroke-linejoin:miter;stroke-miterlimit:4;stroke-opacity:1;stroke-dasharray:none"/>
  <path
    class="tooth-26"
    d="m 247.32567,109.5169 c 1.79388,-6.97855 -2.53479,-6.20623 -4.88354,-7.94043 -4.08046,-0.82335 -7.49848,-2.828309 -14.3296,1.25471 -5.08772,5.94118 -3.56661,9.27648 -4.20948,13.4651 -0.31409,3.99921 1.11659,6.42982 3.05993,7.43473 0.48356,2.15731 0.36938,4.22177 4.63491,6.10615 3.62999,2.71626 6.18128,0.37989 8.86319,-1.34467 4.03838,-0.91093 4.68701,-3.13757 4.59647,-6.22832 8.21826,-2.99933 3.62284,-8.66353 2.26812,-12.74727 z"
    style="fill:#e5e7eb;stroke:#000000;stroke-width:1;stroke-linecap:butt;stroke-linejoin:miter;stroke-miterlimit:4;stroke-opacity:1;stroke-dasharray:none"/>
  <path
    class="tooth-26"
    d="m 231.39281,103.02781 c 0.8356,0.82321 1.95083,0.93613 2.19664,3.25722 -0.37776,2.37943 1.17955,4.75452 2.69459,7.12975 1.56671,1.27953 1.05814,4.7477 1.4802,7.23441 -1.53479,1.22756 -3.07337,1.24138 -4.61231,1.13144 l -2.90868,2.1471"
    style="fill:#e5e7eb;stroke:#000000;stroke-width:1;stroke-linecap:round;stroke-linejoin:miter;stroke-miterlimit:4;stroke-opacity:1;stroke-dasharray:none"/>
  <path
    class="tooth-26"
    d="m 245.74949,110.4378 c -1.04132,0.94712 -1.81888,2.04093 -4.73136,1.94721 -1.66063,-0.17833 -3.32098,-0.26828 -4.97832,0.62258"
    style="fill:#e5e7eb;stroke:#000000;stroke-width:1;stroke-linecap:round;stroke-linejoin:miter;stroke-miterlimit:4;stroke-opacity:1;stroke-dasharray:none"/>
  <path
    class="tooth-26"
    d="m 227.41007,111.29357 c 3.18248,0.45916 7.8863,0.27578 8.75124,1.71373"
    style="fill:#e5e7eb;stroke:#000000;stroke-width:1;stroke-linecap:round;stroke-linejoin:miter;stroke-miterlimit:4;stroke-opacity:1;stroke-dasharray:none"/>
  <path
    class="tooth-26"
    d="m 243.96268,121.75689 c -3.24079,1.23082 -4.6136,-0.0607 -6.31927,-0.90361"
    style="fill:#e5e7eb;stroke:#000000;stroke-width:1;stroke-linecap:round;stroke-linejoin:miter;stroke-miterlimit:4;stroke-opacity:1;stroke-dasharray:none"/>
  <path
    class="tooth-26"
    d="m 241.30213,125.5344 -1.46941,-3.76845"
    style="fill:#e5e7eb;stroke:#000000;stroke-width:1;stroke-linecap:round;stroke-linejoin:miter;stroke-miterlimit:4;stroke-opacity:1;stroke-dasharray:none"/>
  <path
    class="tooth-27 tooth-27-parent"
    d="m 260.30839,143.73962 c 1.73849,-1.9993 1.51117,-4.90954 0.3386,-8.25772 -4.47424,-8.60051 -12.51244,-10.45412 -25.03488,-3.81871 -3.92788,1.33064 -7.04171,3.8892 -9.09018,6.44212 -2.01502,2.5113 -3.88589,3.72012 -2.88985,8.1614 2.29978,7.48127 6.27207,13.34987 17.52981,12.19409 4.47305,-0.45661 8.42319,0.52634 14.08064,-3.19106 2.19006,-3.04194 6.41016,-2.83937 5.06586,-11.53012 z"
    style="fill:#e5e7eb;stroke:#000000;stroke-width:1;stroke-linecap:round;stroke-linejoin:miter;stroke-miterlimit:4;stroke-opacity:1;stroke-dasharray:none"/>
  <path
    class="tooth-27"
    d="m 255.17197,132.63962 c -4.71125,-8.54629 -12.42006,-1.75172 -19.90897,3.91743 -1.53256,1.54558 -3.4783,2.51656 -4.11349,5.30979 -2.30831,4.92516 3.41586,7.73009 6.10823,11.09789 2.69227,3.36772 5.47208,5.04721 10.33666,3.74899 11.37592,-3.51899 11.81059,-8.1333 10.04164,-12.96823 3.59249,-7.15611 1.15912,-7.53274 0.21302,-9.58265 -0.89211,-0.41321 -1.78344,-0.6083 -2.67709,-1.52322 z"
    style="fill:none;stroke:#000000;stroke-width:1;stroke-linecap:butt;stroke-linejoin:miter;stroke-miterlimit:4;stroke-opacity:1;stroke-dasharray:none"/>
  <path
    class="tooth-27"
    d="m 237.08534,136.65497 c 1.14411,0.52176 1.96903,0.51148 2.79542,0.50352 2.2069,-0.27488 3.13437,0.70957 3.40844,2.33708 0.0293,1.02341 -0.29633,2.14689 1.58742,2.64692 1.6231,1.24228 0.81335,1.80991 0.61525,2.54712 0.0441,1.15673 0.087,1.93303 0.12945,2.54816 0.0371,4.1522 -1.31805,4.06317 -2.16929,5.50947 -0.5129,0.46886 -1.14686,0.90412 -0.72377,1.63258 l -0.96945,0.71573"
    style="fill:none;stroke:#000000;stroke-width:1;stroke-linecap:round;stroke-linejoin:miter;stroke-miterlimit:4;stroke-opacity:1;stroke-dasharray:none"/>
  <path
    class="tooth-27"
    d="m 244.60123,131.74542 c -0.46355,0.85048 -0.91427,1.70098 -1.69262,2.55217 -0.86433,0.54277 -1.22958,1.71027 -1.44813,3.0613"
    style="fill:none;stroke:#000000;stroke-width:1;stroke-linecap:round;stroke-linejoin:miter;stroke-miterlimit:4;stroke-opacity:1;stroke-dasharray:none"/>
  <path
    class="tooth-27"
    d="m 253.23095,133.45942 c -1.63491,0.0586 -3.27293,0.11454 -3.64026,1.23126 -2.07131,1.28613 -4.14885,2.57607 -6.42551,3.98972"
    style="fill:none;stroke:#000000;stroke-width:1;stroke-linecap:round;stroke-linejoin:miter;stroke-miterlimit:4;stroke-opacity:1;stroke-dasharray:none"/>
  <path
    class="tooth-27"
    d="m 256.29667,142.72905 -4.73575,0.52008 c -1.78134,0.64501 -3.64733,1.07869 -6.07319,0.11535"
    style="fill:none;stroke:#000000;stroke-width:1;stroke-linecap:round;stroke-linejoin:miter;stroke-miterlimit:4;stroke-opacity:1;stroke-dasharray:none"/>
  <path
    class="tooth-27"
    d="m 246.98225,155.18594 -1.21751,-0.91476 c 0.33714,-2.61552 -0.28124,-3.00779 -1.22294,-2.64764"
    style="fill:none;stroke:#000000;stroke-width:1;stroke-linecap:round;stroke-linejoin:miter;stroke-miterlimit:4;stroke-opacity:1;stroke-dasharray:none"/>
  <path
    class="tooth-28 tooth-28-parent"
    d="m 247.07307,158.32041 c -4.95764,0.38019 -9.42836,1.37006 -12.4394,3.64607 -4.29856,1.86448 -7.04104,3.81869 -6.81422,5.94438 -1.37583,3.24013 -0.30494,5.59385 0.50092,8.04356 l 2.29013,4.0215 c 1.44855,2.34064 4.44207,3.89867 9.12459,4.60115 5.51245,0.76682 11.02542,1.68658 16.52726,-0.94521 6.2639,-1.9609 6.56194,-4.74266 7.16367,-7.48275 1.84863,-2.8107 3.08643,-6.19523 2.35325,-11.43075 -0.64967,-2.39318 -1.47528,-5.43565 -5.51788,-6.82621 -4.04251,-1.39056 -7.66733,-0.66912 -13.18832,0.42826 z"
    style="fill:none;stroke:#000000;stroke-width:1;stroke-linecap:butt;stroke-linejoin:miter;stroke-miterlimit:4;stroke-opacity:1;stroke-dasharray:none"/>
  <path
    class="tooth-28"
    d="m 261.82483,162.59484 c 4.60248,5.4816 1.44905,7.89643 -0.45218,10.80644 0.51739,4.93338 0.36273,8.72622 -3.61837,8.26497 -5.86932,3.50965 -10.14978,1.62586 -14.81609,1.05192 -0.66926,-0.89117 -0.71177,-2.04701 -2.5585,-2.44088 0,0 -4.11013,-7.39848 -4.64261,-8.55258 -0.53246,-1.15418 -0.96197,-3.2939 1.80456,-5.61058 0,0 4.28029,-3.75371 7.03037,-4.80656 1.30812,-0.50083 2.84845,-0.34978 4.24948,-0.62098 2.87232,-0.55593 8.49657,-2.05743 8.49657,-2.05743 2.69486,-0.49984 4.37085,0.67151 4.50677,3.96568 z"
    style="fill:none;stroke:#000000;stroke-width:1;stroke-linecap:butt;stroke-linejoin:miter;stroke-miterlimit:4;stroke-opacity:1;stroke-dasharray:none"/>
  <path
    class="tooth-28"
    d="m 242.92197,177.51932 c -0.17558,-0.0976 2.92161,-1.7535 5.09409,-2.45766 1.11089,-0.36006 1.77514,-1.48016 2.05735,-2.451 0.58086,-1.99824 -1.72516,-4.53335 -0.99087,-6.11417 0.73438,-1.58084 2.27804,-1.65192 3.63744,-2.14869 0.91012,-0.33257 1.45045,-0.0551 2.91374,-0.51604"
    style="fill:none;stroke:#000000;stroke-width:1;stroke-linecap:round;stroke-linejoin:miter;stroke-miterlimit:4;stroke-opacity:1;stroke-dasharray:none"/>
  <path
    class="tooth-28"
    d="m 244.70395,164.67124 c 1.93617,0.47834 4.39516,0.8824 4.49942,1.62115"
    style="fill:none;stroke:#000000;stroke-width:1;stroke-linecap:round;stroke-linejoin:round;stroke-miterlimit:4;stroke-opacity:1;stroke-dasharray:none;marker-start:none;marker-mid:none"/>
  <path
    class="tooth-28"
    d="m 255.42,173.21051 c -0.78292,-0.32757 -1.79059,-0.72318 -3.03801,-0.40111 -1.24745,0.32206 -1.89866,0.42253 -2.30953,-0.5046"
    style="fill:none;stroke:#000000;stroke-width:1;stroke-linecap:round;stroke-linejoin:miter;stroke-miterlimit:4;stroke-opacity:1;stroke-dasharray:none"/>
  <path
    class="tooth-28"
    d="m 244.85021,172.62209 c 1.82345,-0.063 3.81698,0.85555 5.34178,-0.92914"
    style="fill:none;stroke:#000000;stroke-width:1;stroke-linecap:round;stroke-linejoin:miter;stroke-miterlimit:4;stroke-opacity:1;stroke-dasharray:none"/>
  <path
    class="tooth-28"
    d="m 238.21841,206.81934 c 1.18118,0.44643 2.20351,1.20608 3.9422,0.55287"
    style="fill:none;stroke:#000000;stroke-width:1;stroke-linecap:butt;stroke-linejoin:miter;stroke-miterlimit:4;stroke-opacity:1;stroke-dasharray:none"/>
  <path
    class="tooth-31 tooth-31-parent"
    d="m 160.54977,334.14743 c 1.12048,2.06569 1.91435,4.35173 3.95858,5.79383 0.91713,0.77123 1.70668,1.75807 0.6872,5.80105 -1.05812,1.68449 -2.86976,2.66996 -5.71641,2.69552 -2.296,-0.36226 -4.27243,-0.87858 -7.88277,-0.60666 -1.73834,-0.35247 -3.32273,0.12017 -5.43441,-2.23416 -0.69745,-1.11199 -1.78371,-1.82013 -0.0172,-5.4906 l 5.40852,-6.06401 c 1.46736,-0.91714 1.62785,-2.32935 5.04786,-2.50687 2.67434,0.0688 3.17576,1.4203 3.94858,2.6119 z"
    style="fill:#e5e7eb;stroke:#000000;stroke-width:1;stroke-linecap:butt;stroke-linejoin:miter;stroke-miterlimit:4;stroke-opacity:1;stroke-dasharray:none"/>
  <path
    class="tooth-31"
    d="m 164.07862,345.18323 c -1.476,0.20988 -2.87348,0.612 -4.53464,0.19716 l -2.67598,0.1931 c -1.88337,0.23391 -3.5026,0.0217 -5.20456,-0.0508 -2.58005,-0.11326 -5.23809,-0.19564 -4.54029,-1.61224"
    style="fill:#e5e7eb;stroke:#000000;stroke-width:1;stroke-linecap:butt;stroke-linejoin:miter;stroke-miterlimit:4;stroke-opacity:1;stroke-dasharray:none"/>
  <path
    class="tooth-32"
    d="m 176.89567,330.67982 c 1.90366,2.32523 7.18256,4.64292 1.21136,6.98544"
    style="fill:#e5e7eb;stroke:#000000;stroke-width:1;stroke-linecap:butt;stroke-linejoin:miter;stroke-miterlimit:4;stroke-opacity:1;stroke-dasharray:none"/>
  <path
    class="tooth-32"
    d="m 172.44236,333.12294 -1.32152,5.36877 c -0.85933,2.5844 -1.73004,1.52026 -2.60222,0.007"
    style="fill:#e5e7eb;stroke:#000000;stroke-width:1;stroke-linecap:butt;stroke-linejoin:miter;stroke-miterlimit:4;stroke-opacity:1;stroke-dasharray:none"/>
  <path
    class="tooth-32"
    d="m 183.67528,335.15728 c -0.13582,1.89509 0.075,3.97603 -2.73704,4.43591 -2.39095,0.69157 -5.39032,1.38449 -6.31313,2.07286 -3.95757,1.83415 -4.32668,0.87394 -5.94514,0.8866"
    style="fill:#e5e7eb;stroke:#000000;stroke-width:1;stroke-linecap:butt;stroke-linejoin:miter;stroke-miterlimit:4;stroke-opacity:1;stroke-dasharray:none"/>
  <path
    class="tooth-32 tooth-32-parent"
    d="m 169.15853,329.13705 c 1.41294,-3.31132 4.86314,-3.34925 7.20638,-1.76285 l 3.3567,3.54903 3.95041,3.17338 c 0.57437,1.4853 2.11968,1.39374 0.3184,6.73777 -1.08323,2.89062 -3.26184,4.18223 -5.93305,4.75488 -3.4257,0.82565 -6.35877,0.29492 -8.99938,-1.04092 -1.80009,-1.55629 -4.64941,-2.29071 -3.88444,-5.85637 0.76352,-1.60354 0.79984,-1.97848 2.43778,-5.05922 0.51573,-1.49196 1.03389,-2.22737 1.5472,-4.4957 z"
    style="fill:#e5e7eb;stroke:#000000;stroke-width:1;stroke-linecap:butt;stroke-linejoin:miter;stroke-miterlimit:4;stroke-opacity:1;stroke-dasharray:none"/>
  <path
    class="tooth-33 tooth-33-parent"
    d="m 195.66982,319.15822 c -4.97497,-0.5866 -9.32935,-0.60585 -10.17763,2.58052 l -2.50841,6.24485 c -1.80328,4.75974 0.0902,3.79635 0.38826,5.30256 l 3.72894,3.67301 c 1.425,1.21054 2.96041,2.35591 6.32711,2.41944 4.93625,-0.15321 9.93081,-0.21879 10.98427,-6.20109 l 0.42423,-6.98897 c -1.02363,-3.33951 -2.14401,-6.63159 -9.16677,-7.03032 z"
    style="fill:#e5e7eb;stroke:#000000;stroke-width:1;stroke-linecap:butt;stroke-linejoin:miter;stroke-miterlimit:4;stroke-opacity:1;stroke-dasharray:none"/>
  <path
    class="tooth-33"
    d="m 201.7839,324.76019 c -1.46311,3.88912 -2.37921,8.349 -6.88612,9.06219 -3.50495,1.34127 -7.08857,3.50155 -10.03991,-0.91389"
    style="fill:#e5e7eb;stroke:#000000;stroke-width:1;stroke-linecap:butt;stroke-linejoin:miter;stroke-miterlimit:4;stroke-opacity:1;stroke-dasharray:none"/>
  <path
    class="tooth-33"
    d="m 186.4869,330.78353 c 1.78172,0.88899 3.63416,1.93221 3.86433,-0.56996 0.32309,-2.60806 -1.02025,-3.8103 -1.57902,-5.67434"
    style="fill:#e5e7eb;stroke:#000000;stroke-width:1;stroke-linecap:butt;stroke-linejoin:miter;stroke-miterlimit:4;stroke-opacity:1;stroke-dasharray:none"/>
  <path
    class="tooth-33"
    d="m 198.66109,324.70469 c -0.4168,-1.55616 -1.78161,-2.74255 -4.76859,-3.29636"
    style="fill:#e5e7eb;stroke:#000000;stroke-width:1;stroke-linecap:butt;stroke-linejoin:miter;stroke-miterlimit:4;stroke-opacity:1;stroke-dasharray:none"/>
  <path
    class="tooth-33"
    d="m 197.1107,328.2021 c -1.01363,0.81141 -2.03175,0.15098 -3.0557,-2.36423 -0.53257,-1.91237 -1.47652,-2.42822 -2.38863,-3.05202"
    style="fill:#e5e7eb;stroke:#000000;stroke-width:1;stroke-linecap:butt;stroke-linejoin:miter;stroke-miterlimit:4;stroke-opacity:1;stroke-dasharray:none"/>
  <path
    class="tooth-34 tooth-34-parent"
    d="m 219.94541,307.49978 c 2.89434,3.34934 3.58895,5.752 3.29547,7.72953 -0.86582,3.44067 -1.31395,7.1332 -5.62398,8.49779 -6.87838,1.92323 -8.35892,0.32715 -11.15358,-0.41218 -3.19782,-1.30479 -5.71244,-2.93919 -7.52451,-4.91258 -1.39354,-0.80801 -1.28944,-1.61934 -1.34584,-2.43039 0.21527,-1.50665 -0.17103,-2.52372 -0.30908,-3.7429 -0.21045,-2.3646 1.00583,-4.01506 1.69148,-5.93107 2.02812,-1.38579 3.51403,-3.28884 6.82931,-3.44662 l 5.72445,-0.13735 c 3.52615,-0.15511 5.93142,2.4119 8.41628,4.78577 z"
    style="fill:#e5e7eb;stroke:#000000;stroke-width:1;stroke-linecap:butt;stroke-linejoin:miter;stroke-miterlimit:4;stroke-opacity:1;stroke-dasharray:none"/>
  <path
    class="tooth-34"
    d="m 218.46055,308.18937 c -1.02271,1.20696 -2.29203,2.62783 -2.96336,3.37577 -0.36074,0.53405 -0.0561,0.91027 -0.14324,1.7473 0.43001,2.17264 -0.37283,2.03195 -1.10744,2.49819 -0.74964,0.48782 -1.51903,0.94285 -2.07634,1.75158 -0.6394,1.62237 -1.54775,1.26163 -2.37447,1.50258 l -3.41844,0.50671 c -2.71203,0.6851 -3.1385,-0.36455 -4.61085,-0.42665"
    style="fill:#e5e7eb;stroke:#000000;stroke-width:1;stroke-linecap:butt;stroke-linejoin:miter;stroke-miterlimit:4;stroke-opacity:1;stroke-dasharray:none"/>
  <path
    class="tooth-34"
    d="m 202.57288,315.52433 c -0.1782,0.8284 0.46234,1.75314 -0.95888,2.43544"
    style="fill:#e5e7eb;stroke:#000000;stroke-width:1;stroke-linecap:butt;stroke-linejoin:miter;stroke-miterlimit:4;stroke-opacity:1;stroke-dasharray:none"/>
  <path
    class="tooth-34"
    d="m 209.93627,316.44399 -6.33943,-6.35019 c -1.33212,-1.35088 -2.35109,-1.67788 -2.45036,1.00372"
    style="fill:#e5e7eb;stroke:#000000;stroke-width:1;stroke-linecap:butt;stroke-linejoin:miter;stroke-miterlimit:4;stroke-opacity:1;stroke-dasharray:none"/>
  <path
    class="tooth-34"
    d="m 210.9594,310.76399 c -0.62097,-1.60006 -2.36801,-3.19769 -5.36799,-4.79251 1.16188,0.34025 2.32074,0.68816 3.86631,0.0543 1.83199,-0.7536 2.70505,0.11313 3.79361,0.61554"
    style="fill:#e5e7eb;stroke:#000000;stroke-width:1;stroke-linecap:butt;stroke-linejoin:miter;stroke-miterlimit:4;stroke-opacity:1;stroke-dasharray:none"/>
  <path
    class="tooth-35 tooth-35-parent"
    d="m 218.68832,285.85208 c -7.29884,3.04436 -7.19248,4.68134 -7.41301,7.00432 0.55256,2.78228 0.40498,3.81733 0.38791,5.17785 -0.0987,2.86 2.02408,3.61177 3.36163,5.10879 4.28916,3.60151 6.57409,2.43755 9.6004,3.03624 2.78292,-0.35969 4.47873,-0.71702 6.09323,-1.07413 4.53831,-0.92446 4.14168,-2.35554 5.86233,-3.5693 2.20613,-2.48431 2.39999,-5.6587 1.23494,-9.29928 -0.95543,-2.16577 -2.89446,-3.78548 -4.92369,-5.35502 l -4.9879,-2.11041 c -3.82923,-1.32869 -8.21619,0.49536 -9.21584,1.08094 z"
    style="fill:#e5e7eb;stroke:#000000;stroke-width:1;stroke-linecap:butt;stroke-linejoin:miter;stroke-miterlimit:4;stroke-opacity:1;stroke-dasharray:none"/>
  <path
    class="tooth-35"
    d="m 225.52772,285.64986 c 1.58947,0.26831 3.51459,0.46689 4.17418,3.42252 -0.0137,1.28539 0.47816,2.28657 1.05099,3.24214 0.69185,3.08199 -1.1154,5.12227 -2.72825,7.24359 -1.25227,1.77357 -2.80206,1.95091 -4.30487,2.38039 -1.63889,0.72693 -2.86846,0.23957 -3.72159,-1.36452 -0.52186,-0.91547 -0.62984,-2.26745 -1.86631,-2.42924 -0.55852,-0.82672 -0.63251,-1.51907 -0.60164,-2.18241 0.70323,-1.10786 0.13325,-2.6399 -0.0869,-4.05537 2.88564,-0.12172 3.59481,-2.0603 3.92692,-4.31374 1.34266,-0.42673 2.63105,-0.57608 4.1575,-1.94336 z"
    style="fill:#e5e7eb;stroke:#000000;stroke-width:1;stroke-linecap:butt;stroke-linejoin:miter;stroke-miterlimit:4;stroke-opacity:1;stroke-dasharray:none"/>
  <path
    class="tooth-35"
    d="m 222.07578,299.2592 c -1.71157,-1.30095 -1.68045,-3.58245 -1.65397,-5.86135 1.05174,-3.82138 2.95928,-5.64815 6.00723,-4.81749"
    style="fill:#e5e7eb;stroke:#000000;stroke-width:1;stroke-linecap:butt;stroke-linejoin:miter;stroke-miterlimit:4;stroke-opacity:1;stroke-dasharray:none"/>
  <path
    class="tooth-35"
    d="m 218.79689,296.83309 c 0.13438,-1.96036 0.8458,-2.83879 1.77404,-3.31076"
    style="fill:#e5e7eb;stroke:#000000;stroke-width:1;stroke-linecap:butt;stroke-linejoin:miter;stroke-miterlimit:4;stroke-opacity:1;stroke-dasharray:none"/>
  <path
    class="tooth-35"
    d="m 223.07985,287.46469 -0.21759,1.74743"
    style="fill:#e5e7eb;stroke:#000000;stroke-width:1;stroke-linecap:butt;stroke-linejoin:miter;stroke-miterlimit:4;stroke-opacity:1;stroke-dasharray:none"/>
  <path
    class="tooth-36 tooth-36-parent"
    d="m 231.8963,253.69055 c -1.73624,-0.45309 -3.64477,0.42587 -5.57161,1.44731 l -2.59439,2.50145 c -1.82794,1.45981 -2.59429,2.91733 -2.43984,4.37288 0.1661,2.53691 -0.63862,5.076 -2.65278,7.61777 -1.28839,3.1189 -2.12961,6.13255 0.10067,8.42289 1.36196,2.0793 3.01732,4.05941 6.33668,5.47669 3.4707,1.20137 6.53054,2.83605 10.71641,3.28325 2.73599,0.17769 4.95797,0.93364 9.36546,-0.76927 l 6.01172,-3.38242 c 1.01216,-0.62186 1.9762,-0.96998 3.55368,-4.81212 0.5161,-3.56981 2.49737,-6.9892 0.11489,-10.85668 l -3.81476,-7.35397 c -1.80371,-1.89024 -3.00101,-3.96699 -6.85638,-5.22598 -2.24707,-0.60845 -3.75557,-1.55716 -8.03343,-1.23024 z"
    style="fill:none;stroke:#000000;stroke-width:1;stroke-linecap:butt;stroke-linejoin:miter;stroke-miterlimit:4;stroke-opacity:1;stroke-dasharray:none"/>
  <path
    class="tooth-36"
    d="m 225.81068,257.19796 c -0.91695,1.60341 -2.34472,3.20799 -2.36411,4.80945 -0.46323,3.23201 -1.71023,5.48306 -2.9498,7.74327 -0.72463,1.57577 -1.84839,2.74421 -0.87332,6.05403 0.69213,2.07597 1.33644,4.17082 4.92297,5.10546 l 6.17809,2.29498 c 1.75998,0.69502 4.14918,0.59355 6.69225,0.29724 2.47598,-0.74677 4.95437,-0.71449 7.42353,-3.63507 0.53135,-0.87255 0.84339,-2.11085 0.58129,-4.30644"
    style="fill:none;stroke:#000000;stroke-width:1;stroke-linecap:butt;stroke-linejoin:miter;stroke-miterlimit:4;stroke-opacity:1;stroke-dasharray:none"/>
  <path
    class="tooth-36"
    d="m 246.60614,273.93604 c 1.1912,0.012 2.11617,-0.32628 1.92643,-2.1256 -0.27616,-3.41702 0.28305,-6.90605 -1.81613,-10.16608 0,-1.89797 0.1443,-3.87297 -1.57628,-4.80082 -2.27743,-1.39425 -3.36738,-3.79026 -8.18782,-3.03928 -2.37971,0.44301 -3.96169,0.46514 -4.75807,0.0728"
    style="fill:none;stroke:#000000;stroke-width:1;stroke-linecap:butt;stroke-linejoin:miter;stroke-miterlimit:4;stroke-opacity:1;stroke-dasharray:none"/>
  <path
    class="tooth-36"
    d="m 232.35451,257.55796 c 0.88442,1.8741 1.42758,3.63965 3.58714,5.91948 -0.87847,2.43987 -2.13505,3.31467 -3.40715,4.12542 -0.31702,0.68879 -0.83043,0.35189 -0.58231,3.99444 -0.31118,3.49481 -3.02518,4.69726 -4.58776,6.99816"
    style="fill:none;stroke:#000000;stroke-width:1;stroke-linecap:butt;stroke-linejoin:miter;stroke-miterlimit:4;stroke-opacity:1;stroke-dasharray:none"/>
  <path
    class="tooth-36"
    d="m 241.47361,273.13622 c -3.1266,-1.27831 -6.2546,-2.97199 -9.37525,-2.35034"
    style="fill:none;stroke:#000000;stroke-width:1;stroke-linecap:butt;stroke-linejoin:miter;stroke-miterlimit:4;stroke-opacity:1;stroke-dasharray:none"/>
  <path
    class="tooth-36"
    d="m 224.27648,265.87401 c 2.29548,2.97132 5.08469,2.77208 7.74287,3.41463"
    style="fill:none;stroke:#000000;stroke-width:1;stroke-linecap:butt;stroke-linejoin:miter;stroke-miterlimit:4;stroke-opacity:1;stroke-dasharray:none"/>
  <path
    class="tooth-36"
    d="m 228.87337,261.8083 c 1.84562,1.74557 3.67606,3.49495 3.58663,5.73232"
    style="fill:none;stroke:#000000;stroke-width:1;stroke-linecap:butt;stroke-linejoin:miter;stroke-miterlimit:4;stroke-opacity:1;stroke-dasharray:none"/>
  <path
    class="tooth-36"
    d="m 245.07713,260.46248 c -2.12144,2.10497 -5.02605,3.29489 -9.1353,3.07734"
    style="fill:none;stroke:#000000;stroke-width:1;stroke-linecap:butt;stroke-linejoin:miter;stroke-miterlimit:4;stroke-opacity:1;stroke-dasharray:none"/>
  <path
    class="tooth-37 tooth-37-parent"
    d="m 249.6427,222.51738 c 2.77196,1.08131 5.60145,1.76836 8.19109,4.09996 2.14446,1.41719 3.73999,3.9688 4.11738,9.03794 0.18,3.56427 1.20938,7.0376 -1.60156,10.92233 -2.41345,1.70733 -0.93497,2.28843 -7.49304,5.19512 -3.37842,1.18776 -5.80361,3.80654 -10.99644,2.27029 -2.5121,-0.59702 -3.36048,-0.36138 -7.66372,-1.85492 -1.82316,-0.34856 -3.3334,-1.22592 -4.17359,-3.23528 -0.90486,-1.30016 -1.66098,-3.10521 -2.17395,-5.73544 0.1761,-2.2723 0.58422,-3.20718 0.95283,-4.36961 0.58948,-3.05528 0.36843,-4.32807 -0.0165,-5.24095 -0.0396,-1.539 0.32565,-3.0788 1.47253,-4.62034 0.60241,-1.66602 0.99898,-3.24142 4.51943,-5.06378 3.20569,-2.02233 5.28616,-3.54323 14.86535,-1.40532 z"
    style="fill:none;stroke:#000000;stroke-width:1;stroke-linecap:butt;stroke-linejoin:miter;stroke-miterlimit:4;stroke-opacity:1;stroke-dasharray:none"/>
  <path
    class="tooth-37"
    d="m 243.56346,251.91792 c -1.25287,-0.50164 -1.26675,-1.37776 -5.05915,-1.11198 -0.91721,-0.0996 -1.83425,-0.11442 -2.75454,-1.17937 l -2.0107,-1.05633 -1.71393,-1.24407 c -1.3373,-1.21996 -1.64742,-2.53794 -1.20179,-3.92812 0.23491,-1.54226 0.61052,-3.40189 0.28588,-3.68185 -0.17651,-0.95614 0.17517,-2.50666 0.58198,-4.1192 -0.18671,-2.08124 -1.94592,-1.79138 0.348,-7.61279 0.14938,-1.24096 0.93109,-1.87562 2.37326,-1.87699 1.17377,-0.19389 1.48917,-0.64775 2.96886,-1.62873 1.05164,-0.52227 1.59551,-1.04339 3.93557,-1.56848 1.78499,0.18978 3.56772,-0.30823 5.35599,0.9241 l 3.12997,2.3641 c 2.52366,1.7554 2.79387,2.72871 2.98542,3.67466 0.70133,1.41271 0.42734,2.82752 0.16195,4.24238 -0.0595,1.2058 -0.55404,2.20422 -1.99885,2.74971 0.6939,0.6938 1.4727,1.02694 1.79464,3.30288 0.74084,3.95224 -0.3982,4.96535 -1.16913,6.55385 -1.50597,1.83667 -3.01345,3.21988 -4.52039,4.75183"
    style="fill:none;stroke:#000000;stroke-width:1;stroke-linecap:butt;stroke-linejoin:miter;stroke-miterlimit:4;stroke-opacity:1;stroke-dasharray:none"/>
  <path
    class="tooth-37"
    d="m 239.39668,227.03219 c 1.35573,0.77566 2.41871,1.9839 2.98619,3.92423 -0.24389,1.51743 -0.6627,2.74318 -1.10299,3.93319 -0.37066,1.6412 -1.39282,1.54892 -0.87486,5.55492 0.92886,0.75624 1.15862,1.31869 0.89764,1.74504 -1.67935,3.00288 -1.09391,5.65503 1.58629,7.98287"
    style="fill:none;stroke:#000000;stroke-width:1;stroke-linecap:butt;stroke-linejoin:miter;stroke-miterlimit:4;stroke-opacity:1;stroke-dasharray:none"/>
  <path
    class="tooth-37"
    d="m 236.8554,246.56688 c 0.82554,-1.50455 1.76568,-2.96119 4.15162,-3.81516 0.32927,-0.8517 1.44932,-1.19 3.56601,-0.88131"
    style="fill:none;stroke:#000000;stroke-width:1;stroke-linecap:butt;stroke-linejoin:miter;stroke-miterlimit:4;stroke-opacity:1;stroke-dasharray:none"/>
  <path
    class="tooth-37"
    d="m 247.97647,236.55948 c -3.37576,-0.23574 -6.34126,-0.27187 -7.35849,0.64015"
    style="fill:none;stroke:#000000;stroke-width:1;stroke-linecap:butt;stroke-linejoin:miter;stroke-miterlimit:4;stroke-opacity:1;stroke-dasharray:none"/>
  <path
    class="tooth-37"
    d="m 232.14564,238.2789 c 2.64103,-0.61542 4.4651,-1.82756 8.54572,-1.39142"
    style="fill:none;stroke:#000000;stroke-width:1;stroke-linecap:butt;stroke-linejoin:miter;stroke-miterlimit:4;stroke-opacity:1;stroke-dasharray:none"/>
  <path
    class="tooth-37"
    d="m 233.10364,235.53151 3.64809,1.6142"
    style="fill:none;stroke:#000000;stroke-width:1;stroke-linecap:butt;stroke-linejoin:miter;stroke-miterlimit:4;stroke-opacity:1;stroke-dasharray:none"/>
  <path
    class="tooth-37"
    d="m 247.65771,229.69695 c -2.42215,0.40048 -4.11538,0.79937 -5.34936,1.19723"
    style="fill:none;stroke:#000000;stroke-width:1;stroke-linecap:butt;stroke-linejoin:miter;stroke-miterlimit:4;stroke-opacity:1;stroke-dasharray:none"/>
  <path
    class="tooth-37"
    d="m 244.44926,226.02276 c -0.96119,1.58278 -2.16419,3.16601 -1.99265,4.74626"
    style="fill:none;stroke:#000000;stroke-width:1;stroke-linecap:butt;stroke-linejoin:miter;stroke-miterlimit:4;stroke-opacity:1;stroke-dasharray:none"/>
  <path
    class="tooth-38 tooth-38-parent"
    d="m 260.02613,214.38342 c 0.46121,-2.70997 2.52529,-2.96924 0.86432,-8.9241 -0.86527,-4.24874 -3.34697,-7.75805 -8.95254,-9.8385 -3.39318,-0.40535 -6.4858,-2.43565 -10.40869,0.0232 -1.14334,0.83863 -1.99526,1.28569 -2.74582,1.62823 -1.55929,1.36243 -4.59026,1.44291 -6.07587,6.62705 0,1.97558 0.57541,2.74027 -0.49868,6.98911 -0.34041,1.63729 -1.33111,2.66403 -0.20527,5.67825 1.21319,1.39411 1.10358,2.87043 4.84545,4.10733 1.02689,0.79598 9.18618,1.54712 11.82602,1.47148 2.63974,-0.0757 2.5084,0.68084 6.53478,-2.51012 1.59688,-1.69166 3.04717,-2.37808 4.8163,-5.25161 z"
    style="fill:none;stroke:#000000;stroke-width:1;stroke-linecap:butt;stroke-linejoin:round;stroke-miterlimit:4;stroke-opacity:1;stroke-dasharray:none"/>
  <path
	class="tooth-38"
	d="m 241.31283,197.73138 c 3.01777,-3.77512 6.38592,-2.09672 9.81568,0.53999 1.94953,1.965 2.55195,4.03584 2.32401,6.1718 -0.0837,1.28285 -0.74886,2.14997 -2.22285,2.43828 0.97284,0.45631 1.36155,1.3068 1.34583,2.43036 l -1.31796,6.49176 c -1.25659,2.67509 -2.25461,2.66091 -3.33482,3.50133 -0.57644,0.24486 -1.16013,0.48353 -1.93125,0.56583 -1.06656,-0.30188 -2.13278,-0.48687 -3.20645,-3.05027 0.90781,-0.24421 -2.86278,-1.46135 -0.0864,-3.86821 0.89418,-0.82067 -2.12927,-3.48086 -0.38948,-5.67688 0.8904,-2.41627 1.73834,-4.5041 2.43658,-5.43354 -1.87968,-0.25658 -1.31868,-1.69069 -1.94109,-2.55387"
	style="fill:none;stroke:#000000;stroke-width:1;stroke-linecap:butt;stroke-linejoin:miter;stroke-miterlimit:4;stroke-opacity:1;stroke-dasharray:none"/>
  <path
    class="child-tooth-81 child-tooth-81-parent "
    d="m 134.25341,249.5834 c -0.79665,2.13912 -1.36102,4.50647 -2.81448,5.99982 -0.65207,0.79867 -1.21341,1.8206 -0.48858,6.00735 0.7523,1.74435 2.04033,2.76485 4.06425,2.79131 1.63241,-0.37512 3.03762,-0.9098 5.6045,-0.62821 1.23591,-0.36501 2.3624,0.12448 3.86374,-2.31361 0.49589,-1.15152 1.26818,-1.88482 0.0122,-5.68579 l -3.84536,-6.27961 c -1.04325,-0.94977 -1.15734,-2.41218 -3.58892,-2.59601 -1.9014,0.0711 -2.2579,1.4708 -2.80736,2.70476 z"
    style="fill:none;stroke:#000000;stroke-width:1;stroke-linecap:butt;stroke-linejoin:miter;stroke-miterlimit:4;stroke-opacity:1;stroke-dasharray:none"/>
  <path
    class="child-tooth-81"
    d="m 131.74447,261.01157 c 1.04939,0.21735 2.04297,0.63377 3.22403,0.20418 l 1.90256,0.19995 c 1.33905,0.24223 2.49029,0.0225 3.70035,-0.0525 1.83436,-0.11727 3.72417,-0.20253 3.22806,-1.66958"
    style="fill:none;stroke:#000000;stroke-width:1;stroke-linecap:butt;stroke-linejoin:miter;stroke-miterlimit:4;stroke-opacity:1;stroke-dasharray:none"/>
  <path
    class="child-tooth-82"
    d="m 122.63179,245.99259 c -1.35347,2.40782 -5.10665,4.80799 -0.86126,7.23371"
    style="fill:none;stroke:#000000;stroke-width:1;stroke-linecap:butt;stroke-linejoin:miter;stroke-miterlimit:4;stroke-opacity:1;stroke-dasharray:none"/>
  <path
    class="child-tooth-82"
    d="m 125.79801,248.5225 0.93957,5.55963 c 0.61096,2.67631 1.23002,1.57433 1.85014,0.007"
    style="fill:none;stroke:#000000;stroke-width:1;stroke-linecap:butt;stroke-linejoin:miter;stroke-miterlimit:4;stroke-opacity:1;stroke-dasharray:none"/>
  <path
    class="child-tooth-82"
    d="m 117.81161,250.62914 c 0.0967,1.96249 -0.0533,4.11742 1.94598,4.59367 1.69991,0.71613 3.83248,1.43369 4.48853,2.14652 2.81374,1.89936 3.07617,0.905 4.22686,0.91815"
    style="fill:none;stroke:#000000;stroke-width:1;stroke-linecap:butt;stroke-linejoin:miter;stroke-miterlimit:4;stroke-opacity:1;stroke-dasharray:none"/>
  <path
    class="child-tooth-83 child-tooth-83-parent "
    d="m 190.54157,135.47822 c 3.08307,-0.93464 4.52683,-2.64457 4.85452,-4.88239 0.38088,-2.18804 -0.0399,-4.32208 -1.49376,-6.38661 -1.27151,-3.21521 -2.53322,-3.03715 -3.79603,-3.2531 -1.12648,0.12907 -2.15034,0.0704 -3.14743,-0.0373 -3.01397,-0.12136 -4.13673,1.12063 -4.86302,1.93308 -2.54327,3.09458 -2.26245,4.8977 -2.88098,7.11208 -0.31814,2.44499 -0.1778,4.53561 1.19657,5.6723 4.18185,2.8421 4.8927,1.44955 6.64278,1.32481 3.25904,-1.24723 2.42081,-1.02304 3.48735,-1.48295 z"
    style="fill:none;stroke:#000000;stroke-width:1;stroke-linecap:round;stroke-linejoin:miter;stroke-miterlimit:4;stroke-opacity:1;stroke-dasharray:none"/>
  <path
    class="child-tooth-83"
    d="m 186.36428,239.89779 c -1.04021,4.02741 -1.69152,8.64582 -4.89587,9.38439 -2.49196,1.38896 -5.03985,3.62604 -7.13819,-0.94639"
    style="fill:none;stroke:#000000;stroke-width:1;stroke-linecap:round;stroke-linejoin:miter;stroke-miterlimit:4;stroke-opacity:1;stroke-dasharray:none"/>
  <path
    class="child-tooth-83"
    d="m 175.48844,246.13529 c 1.26676,0.92061 2.58382,2.00094 2.74747,-0.59023 0.2297,-2.7008 -0.72539,-3.94577 -1.12268,-5.87607"
    style="fill:none;stroke:#000000;stroke-width:1;stroke-linecap:round;stroke-linejoin:miter;stroke-miterlimit:4;stroke-opacity:1;stroke-dasharray:none"/>
  <path
    class="child-tooth-83"
    d="m 184.14407,239.84031 c -0.29637,-1.61148 -1.2667,-2.84004 -3.39039,-3.41355"
    style="fill:none;stroke:#000000;stroke-width:1;stroke-linecap:round;stroke-linejoin:miter;stroke-miterlimit:4;stroke-opacity:1;stroke-dasharray:none"/>
  <path
    class="child-tooth-84 child-tooth-84-parent "
    d="m 199.27678,222.0237 c 2.0578,3.46842 2.55167,5.9565 2.343,8.00435 -0.61556,3.56301 -0.93416,7.38683 -3.99852,8.79991 -4.8904,1.99162 -5.94305,0.33877 -7.92997,-0.42679 -2.27359,-1.35121 -4.06144,-3.04371 -5.34979,-5.08727 -0.99077,-0.83673 -0.91674,-1.67692 -0.95687,-2.51679 0.15307,-1.56023 -0.12159,-2.61348 -0.21976,-3.876 -0.14961,-2.44868 0.71515,-4.15778 1.20263,-6.14195 1.44194,-1.43504 2.49838,-3.40576 4.85551,-3.56915 l 4.06995,-0.14225 c 2.50703,-0.16061 4.21712,2.4977 5.98382,4.95594 z"
    style="fill:none;stroke:#000000;stroke-width:1;stroke-linecap:butt;stroke-linejoin:round;stroke-miterlimit:4;stroke-opacity:1;stroke-dasharray:none"/>
  <path
    class="child-tooth-84"
    d="m 198.22107,222.73781 c -0.72711,1.24986 -1.62958,2.72126 -2.10688,3.4958 -0.2565,0.55303 -0.0399,0.94263 -0.10182,1.8094 0.30571,2.17264 -0.37283,2.03195 -1.10744,2.49819 -0.74964,0.48782 -1.51903,0.94285 -2.07634,1.75158 -0.6394,1.62237 -1.54775,1.26163 -2.37447,1.50258 l -3.41844,0.50671 c -2.71203,0.6851 -3.1385,-0.36455 -4.61085,-0.42665"
    style="fill:none;stroke:#000000;stroke-width:1;stroke-linecap:butt;stroke-linejoin:miter;stroke-miterlimit:4;stroke-opacity:1;stroke-dasharray:none"/>
  <path
    class="child-tooth-84"
    d="m 186.92525,230.33355 c -0.12671,0.85785 0.32871,1.81549 -0.68173,2.52203"
    style="fill:none;stroke:#000000;stroke-width:1;stroke-linecap:butt;stroke-linejoin:miter;stroke-miterlimit:4;stroke-opacity:1;stroke-dasharray:none"/>
  <path
    class="child-tooth-84"
    d="m 192.16049,231.28593 -4.50722,-6.57596 c -0.94712,-1.39894 -1.67158,-1.73757 -1.74217,1.03938"
    style="fill:none;stroke:#000000;stroke-width:1;stroke-linecap:butt;stroke-linejoin:miter;stroke-miterlimit:4;stroke-opacity:1;stroke-dasharray:none"/>
  <path
    class="child-tooth-84"
    d="m 192.88788,225.40399 c -0.44149,-1.65698 -1.68357,-3.31141 -3.81653,-4.9629 0.82609,0.35232 1.65002,0.7126 2.74887,0.0562 1.30254,-0.78036 1.92324,0.11728 2.69719,0.63745"
    style="fill:none;stroke:#000000;stroke-width:1;stroke-linecap:butt;stroke-linejoin:miter;stroke-miterlimit:4;stroke-opacity:1;stroke-dasharray:none"/>
  <path
    class="child-tooth-85 child-tooth-85-parent"
    d="m 198.383,199.60633 c -5.18932,3.15259 -5.11371,4.8478 -5.27049,7.25337 0.39286,2.88118 0.28796,3.95303 0.2758,5.36194 -0.0701,2.96167 1.43908,3.74017 2.39004,5.29043 3.04952,3.72954 4.67406,2.52421 6.82572,3.14421 1.97858,-0.3725 3.18428,-0.74255 4.33214,-1.11233 3.22667,-0.95734 2.94466,-2.4393 4.168,-3.69621 1.5685,-2.57261 1.70637,-5.85991 0.87803,-9.62991 -0.67928,-2.24278 -2.05789,-3.92006 -3.50063,-5.54542 l -3.54634,-2.18544 c -2.72247,-1.3759 -5.84154,0.51296 -6.55227,1.11936 z"
    style="fill:none;stroke:#000000;stroke-width:1;stroke-linecap:butt;stroke-linejoin:miter;stroke-miterlimit:4;stroke-opacity:1;stroke-dasharray:none"/>
  <path
    class="child-tooth-85"
    d="m 203.24568,199.39694 c 1.13008,0.27784 2.49882,0.4835 2.96778,3.54421 -0.009,1.33107 0.33994,2.36783 0.74722,3.3574 0.49188,3.19157 -0.79302,5.3044 -1.93972,7.50114 -1.25227,1.77357 -2.80206,1.95091 -4.30487,2.38039 -1.63889,0.72693 -2.86846,0.23957 -3.72159,-1.36452 -0.52186,-0.91547 -0.62984,-2.26745 -1.86631,-2.42924 -0.55852,-0.82672 -0.63251,-1.51907 -0.60164,-2.18241 0.70323,-1.10786 0.13325,-2.6399 -0.0869,-4.05537 2.88564,-0.12172 3.59481,-2.0603 3.92692,-4.31374 1.34266,-0.42673 2.63105,-0.57608 4.1575,-1.94336 z"
    style="fill:none;stroke:#000000;stroke-width:1;stroke-linecap:butt;stroke-linejoin:miter;stroke-miterlimit:4;stroke-opacity:1;stroke-dasharray:none"/>
  <path
    class="child-tooth-85"
    d="m 200.79145,213.49015 c -1.21692,-1.34722 -1.19479,-3.70985 -1.17597,-6.06975 0.74778,-3.95725 2.104,-5.84897 4.27103,-4.98877"
    style="fill:none;stroke:#000000;stroke-width:1;stroke-linecap:butt;stroke-linejoin:miter;stroke-miterlimit:4;stroke-opacity:1;stroke-dasharray:none"/>
  <path
    class="child-tooth-85"
    d="m 198.46021,210.97776 c 0.0955,-2.03008 0.60134,-2.93974 1.2613,-3.42845"
    style="fill:none;stroke:#000000;stroke-width:1;stroke-linecap:butt;stroke-linejoin:miter;stroke-miterlimit:4;stroke-opacity:1;stroke-dasharray:none"/>
  <path
    class="child-tooth-85"
    d="m 201.5053,201.27629 -0.1547,1.80957"
    style="fill:none;stroke:#000000;stroke-width:1;stroke-linecap:butt;stroke-linejoin:miter;stroke-miterlimit:4;stroke-opacity:1;stroke-dasharray:none"/>
  <path
    class="child-tooth-91 child-tooth-91-parent "
    d="m 134.25341,249.5834 c -0.79665,2.13912 -1.36102,4.50647 -2.81448,5.99982 -0.65207,0.79867 -1.21341,1.8206 -0.48858,6.00735 0.7523,1.74435 2.04033,2.76485 4.06425,2.79131 1.63241,-0.37512 3.03762,-0.9098 5.6045,-0.62821 1.23591,-0.36501 2.3624,0.12448 3.86374,-2.31361 0.49589,-1.15152 1.26818,-1.88482 0.0122,-5.68579 l -3.84536,-6.27961 c -1.04325,-0.94977 -1.15734,-2.41218 -3.58892,-2.59601 -1.9014,0.0711 -2.2579,1.4708 -2.80736,2.70476 z"
    style="fill:none;stroke:#000000;stroke-width:1;stroke-linecap:butt;stroke-linejoin:miter;stroke-miterlimit:4;stroke-opacity:1;stroke-dasharray:none"/>
  <path
    class="child-tooth-91"
    d="m 131.74447,261.01157 c 1.04939,0.21735 2.04297,0.63377 3.22403,0.20418 l 1.90256,0.19995 c 1.33905,0.24223 2.49029,0.0225 3.70035,-0.0525 1.83436,-0.11727 3.72417,-0.20253 3.22806,-1.66958"
    style="fill:none;stroke:#000000;stroke-width:1;stroke-linecap:butt;stroke-linejoin:miter;stroke-miterlimit:4;stroke-opacity:1;stroke-dasharray:none"/>
  <path
    class="child-tooth-92 child-tooth-92-parent "
    d="m 110.54038,116.16246 c 7.26885,-5.12134 5.77969,-3.6265 8.89074,-4.76501 1.08442,-0.41599 1.98459,-0.47815 2.44213,0.30939 l 1.68688,1.81986 c 1.14633,1.54619 1.07002,1.87443 1.21553,2.42363 0.54002,4.781 -0.0841,4.72099 -0.20441,6.75586 -0.83124,1.73196 -1.83506,3.27773 -3.53342,4.07416 -1.04808,0.79357 -2.49943,0.71568 -4.04124,0.44247 l -2.53533,-0.66262 c -0.994,0.16044 -1.85046,-0.55112 -2.72196,-1.16735 -1.83919,-1.38559 -2.3145,-3.35226 -2.94688,-5.25208 -0.1272,-1.22877 0.19854,-2.31724 0.94759,-3.27469 z"
    style="fill:none;stroke:#000000;stroke-width:1;stroke-linecap:round;stroke-linejoin:miter;stroke-miterlimit:4;stroke-opacity:1;stroke-dasharray:none"/>
  <path
    class="child-tooth-92"
    d="m 112.58627,124.84061 c -0.97564,-1.62832 -2.53749,-2.94419 -0.64278,-6.10275 1.73794,-1.45551 3.09805,-1.90477 4.61068,-2.76021 1.30209,-0.7035 2.59424,-1.38589 3.52665,-1.30102 3.8828,-0.40005 2.28421,0.59546 3.3333,0.91692"
    style="fill:none;stroke:#000000;stroke-width:1;stroke-linecap:round;stroke-linejoin:miter;stroke-miterlimit:4;stroke-opacity:1;stroke-dasharray:none"/>
  <path
    class="child-tooth-92"
    d="m 120.73164,117.50203 c 0.33235,1.866 0.64206,3.78039 1.5867,4.3407"
    style="fill:none;stroke:#000000;stroke-width:1;stroke-linecap:round;stroke-linejoin:miter;stroke-miterlimit:4;stroke-opacity:1;stroke-dasharray:none"/>
  <path
    class="child-tooth-92"
    d="m 117.09124,123.9055 c 0.13748,-1.58912 -2.02127,-2.26145 -3.79782,-3.08637"
    style="fill:none;stroke:#000000;stroke-width:1;stroke-linecap:round;stroke-linejoin:miter;stroke-miterlimit:4;stroke-opacity:1;stroke-dasharray:none"/>
  <path
    class="child-tooth-53 child-tooth-53-parent "
    d="m 103.01062,138.38843 c -3.08304,-0.93467 -4.526843,-2.64459 -4.854532,-4.88241 -0.380883,-2.18802 0.04,-4.32209 1.493748,-6.38662 1.271494,-3.21518 2.533244,-3.03715 3.796044,-3.25309 1.12646,0.12908 2.15034,0.0704 3.14749,-0.0374 3.01396,-0.12134 4.13666,1.12068 4.86298,1.9331 2.54325,3.09457 2.26243,4.89771 2.88096,7.11205 0.31819,2.44502 0.1778,4.53569 -1.19659,5.67236 -4.18183,2.84207 -4.89268,1.4495 -6.64278,1.32478 -3.25902,-1.24726 -2.42079,-1.02305 -3.48732,-1.48294 z"
    style="fill:none;stroke:#000000;stroke-width:1;stroke-linecap:round;stroke-linejoin:miter;stroke-miterlimit:4;stroke-opacity:1;stroke-dasharray:none"/>
  <path
    class="child-tooth-53"
    d="m 100.39514,134.53356 c 0.1465,-3.02657 0.42649,-5.89795 1.98804,-7.27916 1.5452,-1.47098 3.53329,-2.53728 6.25402,-2.93446 1.30209,-0.7035 2.59424,-1.38589 3.52665,-1.30102 3.8828,-0.40005 2.28421,0.59546 3.3333,0.91692"
    style="fill:none;stroke:#000000;stroke-width:1;stroke-linecap:round;stroke-linejoin:miter;stroke-miterlimit:4;stroke-opacity:1;stroke-dasharray:none"/>
  <path
    class="child-tooth-53"
    d="m 108.49459,127.00418 c 1.84406,6.51847 2.6435,8.05682 -2.17536,4.01659"
    style="fill:none;stroke:#000000;stroke-width:1;stroke-linecap:round;stroke-linejoin:miter;stroke-miterlimit:4;stroke-opacity:1;stroke-dasharray:none"/>
  <path
    class="child-tooth-53"
    d="m 106.18196,133.29479 c 4.06,4.46477 1.36698,3.80443 -3.00522,1.86967"
    style="fill:none;stroke:#000000;stroke-width:1;stroke-linecap:round;stroke-linejoin:miter;stroke-miterlimit:4;stroke-opacity:1;stroke-dasharray:none"/>
  <path
    class="child-tooth-54 child-tooth-54-parent "
    d="m 89.282654,139.5966 c 5.648888,-4.45518 9.813436,-1.88186 13.978216,0.69037 1.12472,1.26818 2.22491,2.53628 3.76531,3.80542 4.71702,4.11931 3.8298,6.91486 1.09811,9.27483 -1.70251,1.71634 -3.33311,3.4002 -4.19163,4.7356 -0.98399,0.92064 -1.88868,1.62688 -2.65708,1.96492 -3.636271,1.48371 -5.024579,-0.58561 -7.06579,-1.623 -7.33366,-3.51233 -9.959925,-8.40502 -8.072869,-14.62108 0.207935,-2.3965 1.448348,-3.58013 3.145733,-4.22706 z"
    style="fill:none;stroke:#000000;stroke-width:1;stroke-linecap:butt;stroke-linejoin:miter;stroke-miterlimit:4;stroke-opacity:1;stroke-dasharray:none"/>
  <path
    class="child-tooth-54"
    d="m 90.150883,145.00138 c -1.186546,-4.99812 1.676616,-4.44496 3.230208,-5.68702 2.699015,-0.58969 4.959824,-2.02567 9.478229,0.89864 3.36526,4.25514 2.35913,6.64392 2.78435,9.64383 0.20776,2.86428 -0.73857,4.60513 -2.02398,5.32485 -0.31985,1.54509 -0.24432,3.02368 -3.06573,4.3733 -2.401058,1.94542 -4.088587,0.27208 -5.862521,-0.96309 -2.671184,-0.65241 -3.10021,-2.24715 -3.040305,-4.46077 -5.435886,-2.14817 -2.396319,-6.20491 -1.500251,-9.12974 z"
    style="fill:none;stroke:#000000;stroke-width:1;stroke-linecap:butt;stroke-linejoin:miter;stroke-miterlimit:4;stroke-opacity:1;stroke-dasharray:none"/>
  <path
    class="child-tooth-54"
    d="m 100.6896,140.35381 c -0.55264,0.5896 -1.290369,0.67048 -1.452949,2.33289 0.249861,1.70416 -0.780214,3.40521 -1.782327,5.10638 -1.036306,0.91642 -0.699891,3.40036 -0.979079,5.18135 1.015171,0.87922 2.03288,0.88911 3.050798,0.81037 l 1.923927,1.53778"
    style="fill:none;stroke:#000000;stroke-width:1;stroke-linecap:round;stroke-linejoin:miter;stroke-miterlimit:4;stroke-opacity:1;stroke-dasharray:none"/>
  <path
    class="child-tooth-54"
    d="m 91.193447,145.66094 c 0.68882,0.67833 1.203096,1.46173 3.129528,1.39462 1.0984,-0.12772 2.19665,-0.19216 3.292888,0.44589"
    style="fill:none;stroke:#000000;stroke-width:1;stroke-linecap:round;stroke-linejoin:miter;stroke-miterlimit:4;stroke-opacity:1;stroke-dasharray:none"/>
  <path
    class="child-tooth-54"
    d="m 103.32397,146.27386 c -2.105,0.32886 -5.216376,0.19749 -5.788465,1.22738"
    style="fill:none;stroke:#000000;stroke-width:1;stroke-linecap:round;stroke-linejoin:miter;stroke-miterlimit:4;stroke-opacity:1;stroke-dasharray:none"/>
  <path
    class="child-tooth-54"
    d="m 92.375329,153.76781 c 2.143597,0.88152 3.051647,-0.0435 4.179828,-0.64719"
    style="fill:none;stroke:#000000;stroke-width:1;stroke-linecap:round;stroke-linejoin:miter;stroke-miterlimit:4;stroke-opacity:1;stroke-dasharray:none"/>
  <path
    class="child-tooth-54"
    d="m 94.135111,156.47331 0.971964,-2.69902"
    style="fill:none;stroke:#000000;stroke-width:1;stroke-linecap:round;stroke-linejoin:miter;stroke-miterlimit:4;stroke-opacity:1;stroke-dasharray:none"/>
  <path
    class="child-tooth-55 child-tooth-55-parent "
    d="m 76.99988,167.95696 c -1.149931,-1.43191 -0.999555,-3.51625 -0.223961,-5.91426 2.959466,-6.15977 8.276337,-7.48734 16.559191,-2.735 2.598099,0.95303 4.657723,2.7855 6.012653,4.61391 1.332827,1.79864 2.570317,2.66442 1.911497,5.84527 -1.521172,5.35819 -4.148659,9.56132 -11.595024,8.73357 -2.958672,-0.32704 -5.57148,0.37695 -9.313547,-2.28547 -1.448637,-2.17867 -4.239982,-2.0336 -3.350809,-8.25802 z"
    style="fill:none;stroke:#000000;stroke-width:1;stroke-linecap:round;stroke-linejoin:miter;stroke-miterlimit:4;stroke-opacity:1;stroke-dasharray:none"/>
  <path
    class="child-tooth-55"
    d="m 92.360652,162.88288 c -0.756768,0.37367 -1.30241,0.36632 -1.849015,0.3606 -1.459731,-0.19685 -2.073195,0.50821 -2.25449,1.67385 -0.01932,0.73297 0.196014,1.53762 -1.049981,1.89579 -1.073609,0.88971 -0.538007,1.29625 -0.406966,1.82425 -0.02903,0.82846 -0.0576,1.38445 -0.08563,1.825 -0.02447,2.97386 0.871829,2.91011 1.434868,3.94594 0.339251,0.3358 0.758596,0.64756 0.478742,1.16928 l 0.641237,0.51262"
    style="fill:none;stroke:#000000;stroke-width:1;stroke-linecap:round;stroke-linejoin:miter;stroke-miterlimit:4;stroke-opacity:1;stroke-dasharray:none"/>
  <path
    class="child-tooth-55"
    d="m 87.389301,159.36659 c 0.306624,0.60915 0.604758,1.21826 1.119579,1.82792 0.571715,0.38871 0.813305,1.22489 0.957866,2.19253"
    style="fill:none;stroke:#000000;stroke-width:1;stroke-linecap:round;stroke-linejoin:miter;stroke-miterlimit:4;stroke-opacity:1;stroke-dasharray:none"/>
  <path
    class="child-tooth-55"
    d="m 81.681215,160.59418 c 1.081407,0.042 2.164885,0.0821 2.40785,0.88184 1.370035,0.92114 2.74421,1.84501 4.250115,2.85748"
    style="fill:none;stroke:#000000;stroke-width:1;stroke-linecap:round;stroke-linejoin:miter;stroke-miterlimit:4;stroke-opacity:1;stroke-dasharray:none"/>
  <path
    class="child-tooth-55"
    d="m 79.653417,167.23317 3.132436,0.37253 c 1.178264,0.46195 2.412495,0.77255 4.017083,0.0824"
    style="fill:none;stroke:#000000;stroke-width:1;stroke-linecap:round;stroke-linejoin:miter;stroke-miterlimit:4;stroke-opacity:1;stroke-dasharray:none"/>
  <path
    class="child-tooth-55"
    d="m 85.814392,176.15496 0.805311,-0.65519 c -0.222994,-1.87325 0.186028,-2.1542 0.808964,-1.89627"
    style="fill:none;stroke:#000000;stroke-width:1;stroke-linecap:round;stroke-linejoin:miter;stroke-miterlimit:4;stroke-opacity:1;stroke-dasharray:none"/>
  <path
    class="child-tooth-55"
    d="m 86.799338,168.92944 1.687702,-0.14205 c 0.748556,0.46918 1.497622,0.74832 2.246733,1.0275"
    style="fill:none;stroke:#000000;stroke-width:1;stroke-linecap:round;stroke-linejoin:miter;stroke-miterlimit:4;stroke-opacity:1;stroke-dasharray:none"/>
  <path
    class="child-tooth-61 child-tooth-61-parent "
    d="m 165.33459,113.36434 c -0.0372,0.31136 -2.03838,3.51786 -2.54294,4.9663 -0.6822,1.56367 -1.76853,2.97726 -4.66113,3.72006 -2.36193,-0.26358 -4.75744,-0.31994 -6.74559,-2.88856 l -4.88802,-6.73611 -0.89133,-2.14285 c -0.64364,-1.54722 0.75021,-2.96997 2.05513,-3.57982 l 3.5383,-0.85742 c 2.0666,-0.1203 3.43827,-0.67078 7.47617,0.42903 l 3.78887,0.7507 c 1.37832,0.55227 3.21888,0.3361 3.25466,3.12031 -0.0725,1.06423 0.38632,2.04669 -0.38412,3.21836 z"
    style="fill:none;stroke:#000000;stroke-width:1;stroke-linecap:round;stroke-linejoin:miter;stroke-miterlimit:4;stroke-opacity:1;stroke-dasharray:none"/>
  <path
    class="child-tooth-61"
    d="m 161.70734,117.48414 0.86624,-6.57099 c -0.46982,0 0.52869,-1.32654 -1.23492,-1.91862 -6.44042,-2.27899 -10.16234,-0.60845 -11.21278,-0.10742 -1.05044,0.50107 -1.96238,1.87137 -1.76084,3.31101 0.20149,1.43962 0.64251,1.78532 0.94153,2.50024"
    style="fill:none;stroke:#000000;stroke-width:1;stroke-linecap:round;stroke-linejoin:miter;stroke-miterlimit:4;stroke-opacity:1;stroke-dasharray:none"/>
  <path
    class="child-tooth-62 child-tooth-62-parent "
    d="m 180.36094,116.24854 c -7.57478,-5.32687 -6.02296,-3.77204 -9.26492,-4.95626 -1.13012,-0.43265 -2.06815,-0.49734 -2.54498,0.32182 l -1.75787,1.8929 c -1.19456,1.60823 -1.11506,1.94965 -1.2667,2.52087 -0.56273,4.97288 0.0876,4.91047 0.21305,7.027 0.86618,1.80146 1.91227,3.40925 3.68212,4.23767 1.09218,0.82539 2.60468,0.74438 4.2114,0.46019 l 2.64199,-0.6892 c 1.03584,0.16688 1.92835,-0.57323 2.83654,-1.21421 1.91662,-1.44118 2.41191,-3.48678 3.07092,-5.46283 0.13261,-1.27807 -0.20688,-2.41023 -0.98747,-3.4061 z"
    style="fill:none;stroke:#000000;stroke-width:1;stroke-linecap:round;stroke-linejoin:miter;stroke-miterlimit:4;stroke-opacity:1;stroke-dasharray:none"/>
  <path
    class="child-tooth-62"
    d="m 178.22895,125.27493 c 1.01672,-1.69367 2.6443,-3.06234 0.6699,-6.34761 -1.81116,-1.51397 -3.22854,-1.98124 -4.80484,-2.87103 -1.35685,-0.73172 -2.70341,-1.4415 -3.6751,-1.35323 -4.0462,-0.41611 -2.38035,0.61938 -3.47359,0.95373"
    style="fill:none;stroke:#000000;stroke-width:1;stroke-linecap:round;stroke-linejoin:miter;stroke-miterlimit:4;stroke-opacity:1;stroke-dasharray:none"/>
  <path
    class="child-tooth-62"
    d="m 169.74074,117.64185 c -0.34636,1.94088 -0.66909,3.9321 -1.6535,4.51489"
    style="fill:none;stroke:#000000;stroke-width:1;stroke-linecap:round;stroke-linejoin:miter;stroke-miterlimit:4;stroke-opacity:1;stroke-dasharray:none"/>
  <path
    class="child-tooth-62"
    d="m 172.06141,125.71178 c -0.1433,-1.6529 2.10639,-2.35221 3.95768,-3.21022"
    style="fill:none;stroke:#000000;stroke-width:1;stroke-linecap:round;stroke-linejoin:miter;stroke-miterlimit:4;stroke-opacity:1;stroke-dasharray:none"/>
  <path
    class="child-tooth-63 child-tooth-63-parent "
    d="m 190.54157,135.47822 c 3.08307,-0.93464 4.52683,-2.64457 4.85452,-4.88239 0.38088,-2.18804 -0.0399,-4.32208 -1.49376,-6.38661 -1.27151,-3.21521 -2.53322,-3.03715 -3.79603,-3.2531 -1.12648,0.12907 -2.15034,0.0704 -3.14743,-0.0373 -3.01397,-0.12136 -4.13673,1.12063 -4.86302,1.93308 -2.54327,3.09458 -2.26245,4.8977 -2.88098,7.11208 -0.31814,2.44499 -0.1778,4.53561 1.19657,5.6723 4.18185,2.8421 4.8927,1.44955 6.64278,1.32481 3.25904,-1.24723 2.42081,-1.02304 3.48735,-1.48295 z"
    style="fill:none;stroke:#000000;stroke-width:1;stroke-linecap:round;stroke-linejoin:miter;stroke-miterlimit:4;stroke-opacity:1;stroke-dasharray:none"/>
  <path
    class="child-tooth-63"
    d="m 192.45029,133.65605 c -0.14647,-3.02659 -0.42647,-5.89797 -1.98804,-7.2792 -1.54518,-1.47097 -3.53329,-2.53727 -6.25402,-2.93444 -1.30209,-0.7035 -2.59424,-1.38589 -3.52665,-1.30102 -3.8828,-0.40005 -2.28421,0.59546 -3.3333,0.91692"
    style="fill:none;stroke:#000000;stroke-width:1;stroke-linecap:round;stroke-linejoin:miter;stroke-miterlimit:4;stroke-opacity:1;stroke-dasharray:none"/>
  <path
    class="child-tooth-63"
    d="m 182.93738,126.12663 c -1.26676,0.92061 -2.58382,2.00094 -2.74747,-0.59023 -0.2297,-2.7008 0.72539,-3.94577 1.12268,-5.87607"
    style="fill:none;stroke:#000000;stroke-width:1;stroke-linecap:round;stroke-linejoin:miter;stroke-miterlimit:4;stroke-opacity:1;stroke-dasharray:none"/>
  <path
    class="child-tooth-73 child-tooth-73-parent "
    d="m 182.01732,234.09667 c -3.53712,-0.60748 -6.63299,-0.62741 -7.23613,2.67223 l -1.7834,6.46689 c -1.28208,4.92898 0.0639,3.93133 0.27605,5.49111 l 2.6512,3.80356 c 1.01314,1.25362 2.10478,2.43968 4.49845,2.50549 3.50956,-0.15865 7.06059,-0.22655 7.8096,-6.42156 l 0.30162,-7.23747 c -0.72778,-3.45824 -1.52434,-6.86737 -6.51739,-7.28025 z"
    style="fill:none;stroke:#000000;stroke-width:1;stroke-linecap:butt;stroke-linejoin:miter;stroke-miterlimit:4;stroke-opacity:1;stroke-dasharray:none"/>
  <path
    class="child-tooth-73"
    d="m 186.36428,239.89779 c -1.04021,4.02741 -1.69152,8.64582 -4.89587,9.38439 -2.49196,1.38896 -5.03985,3.62604 -7.13819,-0.94639"
    style="fill:none;stroke:#000000;stroke-width:1;stroke-linecap:butt;stroke-linejoin:miter;stroke-miterlimit:4;stroke-opacity:1;stroke-dasharray:none"/>
  <path
    class="child-tooth-73"
    d="m 175.48844,246.13529 c 1.26676,0.92061 2.58382,2.00094 2.74747,-0.59023 0.2297,-2.7008 -0.72539,-3.94577 -1.12268,-5.87607"
    style="fill:none;stroke:#000000;stroke-width:1;stroke-linecap:butt;stroke-linejoin:miter;stroke-miterlimit:4;stroke-opacity:1;stroke-dasharray:none"/>
  <path
    class="child-tooth-73"
    d="m 184.14407,239.84031 c -0.29637,-1.61148 -1.2667,-2.84004 -3.39039,-3.41355"
    style="fill:none;stroke:#000000;stroke-width:1;stroke-linecap:butt;stroke-linejoin:miter;stroke-miterlimit:4;stroke-opacity:1;stroke-dasharray:none"/>
  <path
    class="child-tooth-74 child-tooth-74-parent "
    d="m 199.27678,222.0237 c 2.0578,3.46842 2.55167,5.9565 2.343,8.00435 -0.61556,3.56301 -0.93416,7.38683 -3.99852,8.79991 -4.8904,1.99162 -5.94305,0.33877 -7.92997,-0.42679 -2.27359,-1.35121 -4.06144,-3.04371 -5.34979,-5.08727 -0.99077,-0.83673 -0.91674,-1.67692 -0.95687,-2.51679 0.15307,-1.56023 -0.12159,-2.61348 -0.21976,-3.876 -0.14961,-2.44868 0.71515,-4.15778 1.20263,-6.14195 1.44194,-1.43504 2.49838,-3.40576 4.85551,-3.56915 l 4.06995,-0.14225 c 2.50703,-0.16061 4.21712,2.4977 5.98382,4.95594 z"
    style="fill:none;stroke:#000000;stroke-width:1;stroke-linecap:butt;stroke-linejoin:round;stroke-miterlimit:4;stroke-opacity:1;stroke-dasharray:none"/>
  <path
    class="child-tooth-74"
    d="m 198.22107,222.73781 c -0.72711,1.24986 -1.62958,2.72126 -2.10688,3.4958 -0.2565,0.55303 -0.0399,0.94263 -0.10182,1.8094 0.30571,2.17264 -0.37283,2.03195 -1.10744,2.49819 -0.74964,0.48782 -1.51903,0.94285 -2.07634,1.75158 -0.6394,1.62237 -1.54775,1.26163 -2.37447,1.50258 l -3.41844,0.50671 c -2.71203,0.6851 -3.1385,-0.36455 -4.61085,-0.42665"
    style="fill:none;stroke:#000000;stroke-width:1;stroke-linecap:butt;stroke-linejoin:miter;stroke-miterlimit:4;stroke-opacity:1;stroke-dasharray:none"/>
  <path
    class="child-tooth-74"
    d="m 186.92525,230.33355 c -0.12671,0.85785 0.32871,1.81549 -0.68173,2.52203"
    style="fill:none;stroke:#000000;stroke-width:1;stroke-linecap:butt;stroke-linejoin:miter;stroke-miterlimit:4;stroke-opacity:1;stroke-dasharray:none"/>
  <path
    class="child-tooth-74"
    d="m 192.16049,231.28593 -4.50722,-6.57596 c -0.94712,-1.39894 -1.6716,-1.73757 -1.74217,1.03938"
    style="fill:none;stroke:#000000;stroke-width:1;stroke-linecap:butt;stroke-linejoin:miter;stroke-miterlimit:4;stroke-opacity:1;stroke-dasharray:none"/>
  <path
    class="child-tooth-74"
    d="m 192.88788,225.40399 c -0.44149,-1.65698 -1.68357,-3.31141 -3.81653,-4.9629 0.82609,0.35232 1.65002,0.7126 2.74887,0.0562 1.30254,-0.78036 1.92324,0.11728 2.69719,0.63745"
    style="fill:none;stroke:#000000;stroke-width:1;stroke-linecap:butt;stroke-linejoin:miter;stroke-miterlimit:4;stroke-opacity:1;stroke-dasharray:none"/>
  <path
    class="child-tooth-75 child-tooth-75-parent"
    d="m 198.383,199.60633 c -5.18932,3.15259 -5.11371,4.8478 -5.27049,7.25337 0.39286,2.88118 0.28796,3.95303 0.2758,5.36194 -0.0701,2.96167 1.43908,3.74017 2.39004,5.29043 3.04952,3.72954 4.67406,2.52421 6.82572,3.14421 1.97858,-0.3725 3.18428,-0.74255 4.33214,-1.11233 3.22667,-0.95734 2.94466,-2.4393 4.168,-3.69621 1.5685,-2.57261 1.70637,-5.85991 0.87803,-9.62991 -0.67928,-2.24278 -2.05789,-3.92006 -3.50063,-5.54542 l -3.54634,-2.18544 c -2.72247,-1.3759 -5.84154,0.51296 -6.55227,1.11936 z"
    style="fill:none;stroke:#000000;stroke-width:1;stroke-linecap:butt;stroke-linejoin:miter;stroke-miterlimit:4;stroke-opacity:1;stroke-dasharray:none"/>
  <path
    class="child-tooth-75"
    d="m 203.24568,199.39694 c 1.13008,0.27784 2.49882,0.4835 2.96778,3.54421 -0.009,1.33107 0.33994,2.36783 0.74722,3.3574 0.49188,3.19157 -0.79302,5.3044 -1.93972,7.50114 -1.25227,1.77357 -2.80206,1.95091 -4.30487,2.38039 -1.63889,0.72693 -2.86846,0.23957 -3.72159,-1.36452 -0.52186,-0.91547 -0.62984,-2.26745 -1.86631,-2.42924 -0.55852,-0.82672 -0.63251,-1.51907 -0.60164,-2.18241 0.70323,-1.10786 0.13325,-2.6399 -0.0869,-4.05537 2.88564,-0.12172 3.59481,-2.0603 3.92692,-4.31374 1.34266,-0.42673 2.63105,-0.57608 4.1575,-1.94336 z"
    style="fill:none;stroke:#000000;stroke-width:1;stroke-linecap:butt;stroke-linejoin:miter;stroke-miterlimit:4;stroke-opacity:1;stroke-dasharray:none"/>
  <path
    class="child-tooth-75"
    d="m 200.79145,213.49015 c -1.21692,-1.34722 -1.19479,-3.70985 -1.17597,-6.06975 0.74778,-3.95725 2.104,-5.84897 4.27103,-4.98877"
    style="fill:none;stroke:#000000;stroke-width:1;stroke-linecap:butt;stroke-linejoin:miter;stroke-miterlimit:4;stroke-opacity:1;stroke-dasharray:none"/>
  <path
    class="child-tooth-75"
    d="m 198.46021,210.97776 c 0.0955,-2.03008 0.60134,-2.93974 1.2613,-3.42845"
    style="fill:none;stroke:#000000;stroke-width:1;stroke-linecap:butt;stroke-linejoin:miter;stroke-miterlimit:4;stroke-opacity:1;stroke-dasharray:none"/>
  <path
    class="child-tooth-75"
    d="m 201.5053,201.27629 -0.1547,1.80957"
    style="fill:none;stroke:#000000;stroke-width:1;stroke-linecap:butt;stroke-linejoin:miter;stroke-miterlimit:4;stroke-opacity:1;stroke-dasharray:none"/>
  <text xml:space="preserve" x="87.802124" y="124.42228" style="font-size:10.13467216px;font-style:normal;font-weight:normal;line-height:125%;letter-spacing:0px;word-spacing:0px;fill:#000000;fill-opacity:1;stroke:none;font-family:Sans">
    <tspan x="87.802124" y="124.42228">53</tspan>
  </text>
  <text xml:space="preserve" x="73.32402" y="141.07207" style="font-size:10.13467216px;font-style:normal;font-weight:normal;line-height:125%;letter-spacing:0px;word-spacing:0px;fill:#000000;fill-opacity:1;stroke:none;font-family:Sans">
    <tspan x="73.32402" y="141.07207">54</tspan>
  </text>
  <text xml:space="preserve" x="63.189354" y="163.51317" style="font-size:10.13467216px;font-style:normal;font-weight:normal;line-height:125%;letter-spacing:0px;word-spacing:0px;fill:#000000;fill-opacity:1;stroke:none;font-family:Sans">
    <tspan x="63.189354" y="163.51317">55</tspan>
  </text>
  <text xml:space="preserve" x="152.22969" y="100.53336" style="font-size:10.13467216px;font-style:normal;font-weight:normal;line-height:125%;letter-spacing:0px;word-spacing:0px;fill:#000000;fill-opacity:1;stroke:none;font-family:Sans">
    <tspan x="152.22969" y="100.53336">61</tspan>
  </text>
  <text xml:space="preserve" x="176.11855" y="110.66804" style="font-size:10.13467216px;font-style:normal;font-weight:normal;line-height:125%;letter-spacing:0px;word-spacing:0px;fill:#000000;fill-opacity:1;stroke:none;font-family:Sans">
    <tspan x="176.11855" y="110.66804">62</tspan>
  </text>
  <text xml:space="preserve" x="192.76837" y="120.80273" style="font-size:10.13467216px;font-style:normal;font-weight:normal;line-height:125%;letter-spacing:0px;word-spacing:0px;fill:#000000;fill-opacity:1;stroke:none;font-family:Sans">
    <tspan x="192.76837" y="120.80273">63</tspan>
  </text>
  <text xml:space="preserve" x="207.97037" y="139.62425" style="font-size:10.13467216px;font-style:normal;font-weight:normal;line-height:125%;letter-spacing:0px;word-spacing:0px;fill:#000000;fill-opacity:1;stroke:none;font-family:Sans">
    <tspan x="207.97037" y="139.62425">64</tspan>
  </text>
  <text xml:space="preserve" x="214.48553" y="164.96092" style="font-size:10.13467216px;font-style:normal;font-weight:normal;line-height:125%;letter-spacing:0px;word-spacing:0px;fill:#000000;fill-opacity:1;stroke:none;font-family:Sans">
    <tspan x="214.48553" y="164.96092">65</tspan>
  </text>
  <text xml:space="preserve" x="149.33405" y="276.44232" style="font-size:10.13467216px;font-style:normal;font-weight:normal;line-height:125%;letter-spacing:0px;word-spacing:0px;fill:#000000;fill-opacity:1;stroke:none;font-family:Sans">
    <tspan x="149.33405" y="276.44232">71</tspan>
  </text>
  <text xml:space="preserve" x="169.60339" y="271.375" style="font-size:10.13467216px;font-style:normal;font-weight:normal;line-height:125%;letter-spacing:0px;word-spacing:0px;fill:#000000;fill-opacity:1;stroke:none;font-family:Sans">
    <tspan x="169.60339" y="271.375">72</tspan>
  </text>
  <text xml:space="preserve" x="187.70103" y="262.68811" style="font-size:10.13467216px;font-style:normal;font-weight:normal;line-height:125%;letter-spacing:0px;word-spacing:0px;fill:#000000;fill-opacity:1;stroke:none;font-family:Sans">
    <tspan x="187.70103" y="262.68811">73</tspan>
  </text>
  <text xml:space="preserve" x="202.90305" y="244.5905" style="font-size:10.13467216px;font-style:normal;font-weight:normal;line-height:125%;letter-spacing:0px;word-spacing:0px;fill:#000000;fill-opacity:1;stroke:none;font-family:Sans">
    <tspan x="202.90305" y="244.5905">74</tspan>
  </text>
  <text xml:space="preserve" x="213.76163" y="217.08217" style="font-size:10.13467216px;font-style:normal;font-weight:normal;line-height:125%;letter-spacing:0px;word-spacing:0px;fill:#000000;fill-opacity:1;stroke:none;font-family:Sans">
    <tspan x="213.76163" y="217.08217">75</tspan>
  </text>
  <text xml:space="preserve" x="131.23643" y="275.71838" style="font-size:10.13467216px;font-style:normal;font-weight:normal;line-height:125%;letter-spacing:0px;word-spacing:0px;fill:#000000;fill-opacity:1;stroke:none;font-family:Sans">
    <tspan x="131.23643" y="275.71838">81</tspan>
  </text>
  <text xml:space="preserve" x="109.51928" y="269.92715" style="font-size:10.13467216px;font-style:normal;font-weight:normal;line-height:125%;letter-spacing:0px;word-spacing:0px;fill:#000000;fill-opacity:1;stroke:none;font-family:Sans">
    <tspan x="109.51928" y="269.92715">82</tspan>
  </text>
  <text xml:space="preserve" x="91.421661" y="259.79251" style="font-size:10.13467216px;font-style:normal;font-weight:normal;line-height:125%;letter-spacing:0px;word-spacing:0px;fill:#000000;fill-opacity:1;stroke:none;font-family:Sans">
    <tspan x="91.421661" y="259.79251">83</tspan>
  </text>
  <text xml:space="preserve" x="76.94355" y="240.97096" style="font-size:10.13467216px;font-style:normal;font-weight:normal;line-height:125%;letter-spacing:0px;word-spacing:0px;fill:#000000;fill-opacity:1;stroke:none;font-family:Sans">
    <tspan x="76.94355" y="240.97096">84</tspan>
  </text>
  <text xml:space="preserve" x="64.637154" y="217.08217" style="font-size:10.13467216px;font-style:normal;font-weight:normal;line-height:125%;letter-spacing:0px;word-spacing:0px;fill:#000000;fill-opacity:1;stroke:none;font-family:Sans">
    <tspan x="64.637154" y="217.08217">85</tspan>
  </text>
  <text xml:space="preserve" x="120.37785" y="17.284296" style="font-size:10.13467216px;font-style:normal;font-weight:normal;line-height:125%;letter-spacing:0px;word-spacing:0px;fill:#000000;fill-opacity:1;stroke:none;font-family:Sans">
    <tspan x="120.37785" y="17.284296">11</tspan>
  </text>
  <text xml:space="preserve" x="85.630409" y="28.142862" style="font-size:10.13467216px;font-style:normal;font-weight:normal;line-height:125%;letter-spacing:0px;word-spacing:0px;fill:#000000;fill-opacity:1;stroke:none;font-family:Sans">
    <tspan x="85.630409" y="28.142862">12</tspan>
  </text>
  <text xml:space="preserve" x="56.67421" y="43.344887" style="font-size:10.13467216px;font-style:normal;font-weight:normal;line-height:125%;letter-spacing:0px;word-spacing:0px;fill:#000000;fill-opacity:1;stroke:none;font-family:Sans">
    <tspan x="56.67421" y="43.344887">13</tspan>
  </text>
  <text xml:space="preserve" x="42.92001" y="64.338097" style="font-size:10.13467216px;font-style:normal;font-weight:normal;line-height:125%;letter-spacing:0px;word-spacing:0px;fill:#000000;fill-opacity:1;stroke:none;font-family:Sans">
    <tspan x="42.92001" y="64.338097">14</tspan>
  </text>
  <text xml:space="preserve" x="32.785339" y="88.226982" style="font-size:10.13467216px;font-style:normal;font-weight:normal;line-height:125%;letter-spacing:0px;word-spacing:0px;fill:#000000;fill-opacity:1;stroke:none;font-family:Sans">
    <tspan x="32.785339" y="88.226982">15</tspan>
  </text>
  <text xml:space="preserve" x="19.031139" y="110.66804" style="font-size:10.13467216px;font-style:normal;font-weight:normal;line-height:125%;letter-spacing:0px;word-spacing:0px;fill:#000000;fill-opacity:1;stroke:none;font-family:Sans">
    <tspan x="19.031139" y="110.66804">16</tspan>
  </text>
  <text xml:space="preserve" x="12.515995" y="141.07207" style="font-size:10.13467216px;font-style:normal;font-weight:normal;line-height:125%;letter-spacing:0px;word-spacing:0px;fill:#000000;fill-opacity:1;stroke:none;font-family:Sans">
    <tspan x="12.515995" y="141.07207">17</tspan>
  </text>
  <text xml:space="preserve" x="8.8964691" y="172.2" style="font-size:10.13467216px;font-style:normal;font-weight:normal;line-height:125%;letter-spacing:0px;word-spacing:0px;fill:#000000;fill-opacity:1;stroke:none;font-family:Sans">
    <tspan x="8.8964691" y="172.2">18</tspan>
  </text>
  <text xml:space="preserve" x="155.84921" y="17.284296" style="font-size:10.13467216px;font-style:normal;font-weight:normal;line-height:125%;letter-spacing:0px;word-spacing:0px;fill:#000000;fill-opacity:1;stroke:none;font-family:Sans">
    <tspan x="155.84921" y="17.284296">21</tspan>
  </text>
  <text xml:space="preserve" x="192.76837" y="29.590677" style="font-size:10.13467216px;font-style:normal;font-weight:normal;line-height:125%;letter-spacing:0px;word-spacing:0px;fill:#000000;fill-opacity:1;stroke:none;font-family:Sans">
    <tspan x="192.76837" y="29.590677">22</tspan>
  </text>
  <text xml:space="preserve" x="220.27673" y="44.068779" style="font-size:10.13467216px;font-style:normal;font-weight:normal;line-height:125%;letter-spacing:0px;word-spacing:0px;fill:#000000;fill-opacity:1;stroke:none;font-family:Sans">
    <tspan x="220.27673" y="44.068779">23</tspan>
  </text>
  <text xml:space="preserve" x="236.20268" y="64.338097" style="font-size:10.13467216px;font-style:normal;font-weight:normal;line-height:125%;letter-spacing:0px;word-spacing:0px;fill:#000000;fill-opacity:1;stroke:none;font-family:Sans">
    <tspan x="236.20268" y="64.338097">24</tspan>
  </text>
  <text xml:space="preserve" x="247.06125" y="86.779167" style="font-size:10.13467216px;font-style:normal;font-weight:normal;line-height:125%;letter-spacing:0px;word-spacing:0px;fill:#000000;fill-opacity:1;stroke:none;font-family:Sans">
    <tspan x="247.06125" y="86.779167">25</tspan>
  </text>
  <text xml:space="preserve" x="258.64374" y="109.22027" style="font-size:10.13467216px;font-style:normal;font-weight:normal;line-height:125%;letter-spacing:0px;word-spacing:0px;fill:#000000;fill-opacity:1;stroke:none;font-family:Sans">
    <tspan x="258.64374" y="109.22027">26</tspan>
  </text>
  <text xml:space="preserve" x="264.43497" y="139.62425" style="font-size:10.13467216px;font-style:normal;font-weight:normal;line-height:125%;letter-spacing:0px;word-spacing:0px;fill:#000000;fill-opacity:1;stroke:none;font-family:Sans">
    <tspan x="264.43497" y="139.62425">27</tspan>
  </text>
  <text xml:space="preserve" x="268.77841" y="169.3044" style="font-size:10.13467216px;font-style:normal;font-weight:normal;line-height:125%;letter-spacing:0px;word-spacing:0px;fill:#000000;fill-opacity:1;stroke:none;font-family:Sans">
    <tspan x="268.77841" y="169.3044">28</tspan>
  </text>
  <text xml:space="preserve" x="151.50578" y="360.41531" style="font-size:10.13467216px;font-style:normal;font-weight:normal;line-height:125%;letter-spacing:0px;word-spacing:0px;fill:#000000;fill-opacity:1;stroke:none;font-family:Sans">
    <tspan x="151.50578" y="360.41531">31</tspan>
  </text>
  <text xml:space="preserve" x="176.84245" y="355.34799" style="font-size:10.13467216px;font-style:normal;font-weight:normal;line-height:125%;letter-spacing:0px;word-spacing:0px;fill:#000000;fill-opacity:1;stroke:none;font-family:Sans">
    <tspan x="176.84245" y="355.34799">32</tspan>
  </text>
  <text xml:space="preserve" x="202.17912" y="346.6611" style="font-size:10.13467216px;font-style:normal;font-weight:normal;line-height:125%;letter-spacing:0px;word-spacing:0px;fill:#000000;fill-opacity:1;stroke:none;font-family:Sans">
    <tspan x="202.17912" y="346.6611">33</tspan>
  </text>
  <text xml:space="preserve" x="222.44849" y="330.01129" style="font-size:10.13467216px;font-style:normal;font-weight:normal;line-height:125%;letter-spacing:0px;word-spacing:0px;fill:#000000;fill-opacity:1;stroke:none;font-family:Sans">
    <tspan x="222.44849" y="330.01129">34</tspan>
  </text>
  <text xml:space="preserve" x="240.5461" y="309.01804" style="font-size:10.13467216px;font-style:normal;font-weight:normal;line-height:125%;letter-spacing:0px;word-spacing:0px;fill:#000000;fill-opacity:1;stroke:none;font-family:Sans">
    <tspan x="240.5461" y="309.01804">35</tspan>
  </text>
  <text xml:space="preserve" x="257.91986" y="282.95749" style="font-size:10.13467216px;font-style:normal;font-weight:normal;line-height:125%;letter-spacing:0px;word-spacing:0px;fill:#000000;fill-opacity:1;stroke:none;font-family:Sans">
    <tspan x="257.91986" y="282.95749">36</tspan>
  </text>
  <text xml:space="preserve" x="265.15891" y="245.31441" style="font-size:10.13467216px;font-style:normal;font-weight:normal;line-height:125%;letter-spacing:0px;word-spacing:0px;fill:#000000;fill-opacity:1;stroke:none;font-family:Sans">
    <tspan x="265.15891" y="245.31441">37</tspan>
  </text>
  <text xml:space="preserve" x="265.15891" y="214.18651" style="font-size:10.13467216px;font-style:normal;font-weight:normal;line-height:125%;letter-spacing:0px;word-spacing:0px;fill:#000000;fill-opacity:1;stroke:none;font-family:Sans">
    <tspan x="265.15891" y="214.18651">38</tspan>
  </text>
  <text xml:space="preserve" x="128.34082" y="360.41531" style="font-size:10.13467216px;font-style:normal;font-weight:normal;line-height:125%;letter-spacing:0px;word-spacing:0px;fill:#000000;fill-opacity:1;stroke:none;font-family:Sans">
    <tspan x="128.34082" y="360.41531">41</tspan>
  </text>
  <text xml:space="preserve" x="100.10851" y="356.79581" style="font-size:10.13467216px;font-style:normal;font-weight:normal;line-height:125%;letter-spacing:0px;word-spacing:0px;fill:#000000;fill-opacity:1;stroke:none;font-family:Sans">
    <tspan x="100.10851" y="356.79581">42</tspan>
  </text>
  <text xml:space="preserve" x="76.94355" y="347.38501" style="font-size:10.13467216px;font-style:normal;font-weight:normal;line-height:125%;letter-spacing:0px;word-spacing:0px;fill:#000000;fill-opacity:1;stroke:none;font-family:Sans">
    <tspan x="76.94355" y="347.38501">43</tspan>
  </text>
  <text xml:space="preserve" x="55.950298" y="330.01129" style="font-size:10.13467216px;font-style:normal;font-weight:normal;line-height:125%;letter-spacing:0px;word-spacing:0px;fill:#000000;fill-opacity:1;stroke:none;font-family:Sans">
    <tspan x="55.950298" y="330.01129">44</tspan>
  </text>
  <text xml:space="preserve" x="38.57658" y="310.46585" style="font-size:10.13467216px;font-style:normal;font-weight:normal;line-height:125%;letter-spacing:0px;word-spacing:0px;fill:#000000;fill-opacity:1;stroke:none;font-family:Sans">
    <tspan x="38.57658" y="310.46585">45</tspan>
  </text>
  <text xml:space="preserve" x="20.478951" y="287.30087" style="font-size:10.13467216px;font-style:normal;font-weight:normal;line-height:125%;letter-spacing:0px;word-spacing:0px;fill:#000000;fill-opacity:1;stroke:none;font-family:Sans">
    <tspan x="20.478951" y="287.30087">46</tspan>
  </text>
  <text xml:space="preserve" x="12.515995" y="244.5905" style="font-size:10.13467216px;font-style:normal;font-weight:normal;line-height:125%;letter-spacing:0px;word-spacing:0px;fill:#000000;fill-opacity:1;stroke:none;font-family:Sans">
    <tspan x="12.515995" y="244.5905">47</tspan>
  </text>
  <text xml:space="preserve" x="12.515995" y="214.18651" style="font-size:10.13467216px;font-style:normal;font-weight:normal;line-height:125%;letter-spacing:0px;word-spacing:0px;fill:#000000;fill-opacity:1;stroke:none;font-family:Sans">
    <tspan x="12.515995" y="214.18651">48</tspan>
  </text>
</svg>